<svg xmlns="http://www.w3.org/2000/svg" xmlns:xlink="http://www.w3.org/1999/xlink" width="1920" zoomAndPan="magnify" viewBox="0 0 1440 809.999993" height="1080" preserveAspectRatio="xMidYMid meet" version="1.0"><path stroke-linecap="butt" transform="matrix(0.75, 0, 0, 0.75, 341.654286, 250.250016)" fill="none" stroke-linejoin="miter" d="M 6.674494 45.677064 L 6.674494 138.999985 L 68.648456 138.999985 L 68.648456 116.994776 L 29.460954 116.994776 L 29.460954 45.677064 Z M 149.731793 102.739567 C 149.731793 78.062482 131.0495 65.791648 112.523458 65.791648 C 93.742207 65.791648 75.190123 78.062482 75.190123 102.739567 C 75.190123 127.411443 93.742207 139.812485 112.39325 139.812485 C 127.335959 139.812485 142.112001 131.937485 147.580751 116.213526 L 124.7995 116.213526 C 121.737 119.536443 117.341166 121.130193 112.653666 121.130193 C 106.273458 120.999984 99.731791 117.677068 97.195332 111.005192 L 148.919293 111.005192 C 149.471376 108.338526 149.731793 105.66665 149.731793 102.739567 Z M 126.783875 94.598941 L 98.007832 94.598941 C 100.122416 87.536441 105.851583 84.052066 112.132833 84.052066 C 118.940125 84.052066 124.7995 87.406233 126.783875 94.598941 Z M 195.575545 65.66144 C 172.138044 65.66144 160.64846 82.197899 160.64846 101.921859 C 160.64846 121.812485 172.528669 139.942694 195.315129 139.942694 C 202.247421 139.942694 209.315129 137.927069 214.263046 131.807277 L 214.263046 138.999985 L 235.190131 138.999985 L 235.190131 66.864565 L 214.263046 66.864565 L 214.263046 74.322899 C 209.606796 68.333315 202.674504 65.66144 195.575545 65.66144 Z M 197.856796 119.796859 C 187.179712 119.796859 181.742211 111.135401 181.742211 102.47915 C 181.742211 93.656233 187.049503 84.999983 197.856796 84.999983 C 206.934921 84.999983 214.263046 92.874983 214.263046 102.47915 C 214.263046 112.078109 206.934921 119.796859 197.856796 119.796859 Z M 268.252632 71.682274 L 267.471382 66.864565 L 248.528673 66.864565 L 248.528673 138.999985 L 269.455757 138.999985 L 269.455757 98.994775 C 269.455757 89.2604 277.205758 85.260399 284.789092 85.130191 C 287.20055 85.130191 289.737008 85.552066 291.851592 86.203108 L 292.112009 66.47394 C 289.315133 65.791648 286.51305 65.401023 283.976592 65.401023 C 278.117216 65.401023 272.908883 67.25519 268.252632 71.682274 Z M 323.440135 74.062482 L 323.440135 66.864565 L 302.247426 66.864565 L 302.247426 138.999985 L 324.513052 138.999985 L 324.513052 99.807275 C 324.513052 90.593733 332.002636 85.260399 338.247428 85.260399 C 343.976595 85.260399 349.445345 89.651025 349.445345 99.3854 L 349.445345 138.999985 L 370.799513 138.999985 L 370.799513 99.255192 C 370.929721 81.255191 365.330762 66.052065 344.794303 65.791648 C 337.044303 65.791648 328.51826 67.682273 323.440135 74.062482 Z M 323.440135 74.062482 " stroke="#000000" stroke-width="6.416651" stroke-opacity="1" stroke-miterlimit="4"/><path stroke-linecap="butt" transform="matrix(0.75, 0, 0, 0.75, 341.654286, 250.250016)" fill="none" stroke-linejoin="miter" d="M 524.533895 44.598939 L 451.455767 44.598939 L 451.455767 65.921857 L 476.653685 65.921857 L 476.653685 138.999985 L 499.471394 138.999985 L 499.471394 65.921857 L 524.533895 65.921857 Z M 608.132858 102.999984 C 608.132858 77.281232 588.924524 64.458315 569.721398 64.458315 C 550.382855 64.458315 531.179729 77.281232 531.179729 102.999984 C 531.179729 128.614568 550.513063 141.406236 569.721398 141.406236 C 588.924524 141.406236 608.132858 128.614568 608.132858 102.999984 Z M 552.27348 102.999984 C 552.27348 90.723941 560.92973 84.609358 569.721398 84.609358 C 579.325565 84.609358 587.070357 90.723941 587.070357 102.999984 C 587.070357 115.140609 578.377648 121.130193 569.721398 121.130193 C 560.92973 121.130193 552.27348 115.140609 552.27348 102.999984 Z M 675.862028 92.453108 C 675.862028 74.744774 688.658904 65.921857 701.450571 65.921857 C 712.127655 65.921857 722.934947 72.072899 725.992239 84.479149 L 749.039115 84.479149 C 746.112031 60.453106 725.440155 44.208314 701.450571 44.208314 C 674.789111 44.208314 653.174527 65.010398 653.174527 92.453108 C 653.174527 119.927068 674.789111 140.333319 701.450571 140.333319 C 725.731822 140.333319 745.721406 124.187485 749.169323 99.807275 L 726.122447 99.807275 C 723.195364 112.468734 712.388071 118.885401 701.450571 118.885401 C 688.658904 118.885401 675.862028 110.062484 675.862028 92.453108 Z M 830.924536 102.999984 C 830.924536 77.281232 811.716201 64.458315 792.513075 64.458315 C 773.174533 64.458315 753.971407 77.281232 753.971407 102.999984 C 753.971407 128.614568 773.304741 141.406236 792.513075 141.406236 C 811.716201 141.406236 830.924536 128.614568 830.924536 102.999984 Z M 775.065158 102.999984 C 775.065158 90.723941 783.721408 84.609358 792.513075 84.609358 C 802.117243 84.609358 809.862035 90.723941 809.862035 102.999984 C 809.862035 115.140609 801.169326 121.130193 792.513075 121.130193 C 783.721408 121.130193 775.065158 115.140609 775.065158 102.999984 Z M 874.632871 65.66144 C 851.19537 65.66144 839.700578 82.197899 839.700578 101.921859 C 839.700578 121.812485 851.585995 139.942694 874.372455 139.942694 C 881.304747 139.942694 888.367247 137.927069 893.315164 131.807277 L 893.315164 138.999985 L 914.247457 138.999985 L 914.247457 44.989564 L 893.315164 44.989564 L 893.315164 73.41144 C 888.497455 67.94269 881.726622 65.66144 874.632871 65.66144 Z M 876.908913 119.796859 C 866.231829 119.796859 860.794329 111.135401 860.794329 102.47915 C 860.794329 93.656233 866.101621 84.999983 876.908913 84.999983 C 885.992247 84.999983 893.315164 92.874983 893.315164 102.47915 C 893.315164 112.078109 885.992247 119.796859 876.908913 119.796859 Z M 999.846419 102.739567 C 999.846419 78.062482 981.158918 65.791648 962.638084 65.791648 C 943.856833 65.791648 925.304749 78.062482 925.304749 102.739567 C 925.304749 127.411443 943.856833 139.812485 962.507876 139.812485 C 977.450585 139.812485 992.226627 131.937485 997.695377 116.213526 L 974.908918 116.213526 C 971.851626 119.536443 967.455793 121.130193 962.768292 121.130193 C 956.388084 120.999984 949.846417 117.677068 947.30475 111.005192 L 999.028711 111.005192 C 999.586003 108.338526 999.846419 105.66665 999.846419 102.739567 Z M 976.898501 94.598941 L 948.122458 94.598941 C 950.237042 87.536441 955.966209 84.052066 962.247459 84.052066 C 969.049543 84.052066 974.908918 87.406233 976.898501 94.598941 Z M 976.898501 94.598941 " stroke="#000000" stroke-width="6.416651" stroke-opacity="1" stroke-miterlimit="4"/></svg>