<svg xmlns="http://www.w3.org/2000/svg" xmlns:xlink="http://www.w3.org/1999/xlink" width="1920" zoomAndPan="magnify" viewBox="0 0 1440 809.999993" height="1080" preserveAspectRatio="xMidYMid meet" version="1.0"><defs><clipPath id="4db67302d7"><path d="M 714 333 L 862 333 L 862 475 L 714 475 Z M 714 333 " clip-rule="nonzero"/></clipPath><clipPath id="1b3d7f7357"><path d="M 705.074219 352.003906 L 846.886719 327 L 869.941406 457.734375 L 728.128906 482.738281 Z M 705.074219 352.003906 " clip-rule="nonzero"/></clipPath><clipPath id="c5f9903207"><path d="M 705.074219 352.003906 L 846.886719 327 L 869.941406 457.734375 L 728.128906 482.738281 Z M 705.074219 352.003906 " clip-rule="nonzero"/></clipPath></defs><rect x="-144" width="1728" fill="#ffffff" y="-80.999999" height="971.999992" fill-opacity="1"/><g clip-path="url(#4db67302d7)"><g clip-path="url(#1b3d7f7357)"><g clip-path="url(#c5f9903207)"><path fill="#fa7982" d="M 768.417969 474.734375 C 765.144531 474.472656 760.65625 472.804688 758.328125 470.988281 C 756.246094 469.367188 755.335938 467.3125 755.597656 464.816406 C 755.675781 464.074219 756.398438 461.457031 757.199219 459.003906 C 760.042969 450.316406 760.765625 444.851562 760.355469 435.054688 C 760.300781 433.765625 759.867188 430.726562 759.234375 427.207031 C 758.253906 421.738281 758.121094 421.222656 756.464844 416.300781 C 752.457031 404.378906 750.832031 398.597656 750.277344 394.316406 C 749.890625 391.320312 750.253906 391.492188 746.902344 392.726562 C 742.734375 394.265625 740.652344 395.617188 736.292969 399.625 C 732.8125 402.824219 731.375 403.890625 729.535156 404.625 C 728.765625 404.933594 727.921875 405.414062 727.65625 405.691406 C 726.320312 407.101562 724.621094 407.808594 722.84375 407.699219 C 717.183594 407.355469 712.785156 395.246094 714.402344 384.441406 C 715.449219 377.441406 718.5 372.199219 724.796875 366.566406 C 729.234375 362.601562 734.5 359.644531 740.96875 357.480469 C 745.207031 356.066406 748.472656 355.328125 761.34375 352.871094 C 777.410156 349.804688 780.992188 348.894531 788.507812 345.960938 C 794.675781 343.550781 798.84375 341.320312 803.921875 337.703125 C 808.6875 334.308594 810.6875 333.390625 813.144531 333.460938 C 815.703125 333.535156 817.554688 334.546875 818.699219 336.496094 C 819.0625 337.109375 819.738281 338.148438 820.199219 338.804688 C 822.308594 341.789062 823.601562 345.511719 823.859375 349.359375 C 824.195312 354.304688 823.246094 358.082031 820.382812 363.21875 C 819.753906 364.34375 819.28125 365.285156 819.328125 365.3125 C 819.375 365.339844 820.183594 365.449219 821.125 365.5625 C 822.980469 365.777344 824.757812 366.261719 829.335938 367.789062 C 838.058594 370.699219 844.257812 375.328125 849.933594 383.171875 C 853.390625 387.945312 855.429688 391.851562 857.515625 397.699219 C 861.027344 407.542969 862.316406 419.210938 860.941406 428.699219 C 859.414062 439.253906 851.695312 450.285156 842.484375 455.085938 C 839.066406 456.871094 836.359375 457.722656 831.167969 458.648438 C 826.015625 459.5625 824.308594 459.636719 820.960938 459.0625 C 817.003906 458.382812 811.890625 456.230469 808.894531 453.984375 C 808.46875 453.664062 807.136719 452.960938 805.9375 452.414062 C 803.132812 451.144531 799.808594 448.824219 797.902344 446.804688 L 796.398438 445.21875 L 796.328125 445.964844 C 795.882812 450.6875 795.605469 452.542969 795.027344 454.621094 C 793.828125 458.933594 791.941406 462.652344 789.714844 465.089844 C 787.328125 467.699219 783.4375 470.007812 780.023438 470.839844 C 778.511719 471.203125 777.980469 471.449219 776.898438 472.265625 C 774.398438 474.160156 771.550781 474.988281 768.417969 474.734375 Z M 782.375 467.242188 C 787.257812 465.015625 790.484375 460.828125 792.316406 454.335938 C 793.066406 451.667969 793.449219 448.742188 793.597656 444.503906 C 793.679688 442.140625 793.628906 441.445312 793.339844 440.863281 C 793.140625 440.464844 792.652344 439.496094 792.25 438.703125 C 791.15625 436.550781 790.058594 433.839844 789.039062 430.78125 C 788.535156 429.269531 787.886719 427.539062 787.597656 426.933594 C 785.683594 422.914062 784.730469 416.128906 785.132812 409.363281 C 785.25 407.402344 785.21875 407.191406 784.464844 404.546875 C 784.03125 403.027344 783.160156 398.957031 782.53125 395.503906 L 781.386719 389.226562 L 781.738281 387.039062 C 782.1875 384.238281 782.820312 382.597656 784.050781 381.027344 C 786.238281 378.246094 789.058594 376.644531 795.140625 374.726562 C 800.207031 373.128906 801.3125 372.664062 802.902344 371.453125 C 803.738281 370.820312 804.554688 370.28125 804.722656 370.25 C 804.890625 370.21875 806.144531 369.601562 807.503906 368.878906 C 809.828125 367.640625 812.152344 366.671875 814.570312 365.929688 C 815.777344 365.558594 816.746094 364.414062 818.410156 361.390625 C 821.363281 356.015625 822.027344 351.988281 820.84375 346.625 C 820.519531 345.144531 820.070312 343.574219 819.847656 343.128906 L 819.441406 342.324219 L 818.957031 343.800781 C 816.875 350.164062 811.316406 356.058594 803.410156 360.292969 C 797.789062 363.300781 793.574219 364.621094 783.257812 366.597656 L 775.527344 368.082031 L 774.875 369.226562 C 771.058594 375.953125 769.414062 386.652344 770.394531 398.425781 C 770.9375 404.9375 772.816406 412.339844 776.945312 424.195312 C 780.214844 433.589844 782.335938 441.367188 782.90625 446.050781 C 783.953125 454.632812 783.382812 461.414062 781.199219 466.28125 C 780.859375 467.042969 780.589844 467.71875 780.601562 467.785156 C 780.632812 467.976562 781.015625 467.859375 782.371094 467.242188 Z M 837.035156 453.867188 C 839.582031 452.90625 841.242188 452.109375 842.902344 451.054688 C 849.078125 447.128906 854.933594 439.203125 856.972656 432.019531 C 858.753906 425.742188 858.90625 417.230469 857.394531 408.558594 C 856.355469 402.625 855.121094 398.527344 852.878906 393.601562 C 849.851562 386.953125 844.964844 380.441406 839.878906 376.273438 C 838.914062 375.484375 838.09375 374.886719 838.054688 374.941406 C 838.015625 374.996094 838.445312 375.710938 839.007812 376.53125 C 841.210938 379.738281 842.867188 383.203125 844.433594 387.890625 C 845.445312 390.917969 847.253906 400.804688 847.453125 404.390625 C 848.023438 414.710938 847.300781 422.597656 845.105469 429.945312 C 842.566406 438.433594 837.214844 445.472656 829.785156 450.089844 C 826.394531 452.199219 824.191406 453.101562 820.394531 453.945312 L 817.0625 454.683594 L 819.0625 455.253906 C 821.292969 455.886719 822.945312 456.109375 825.453125 456.109375 C 827.65625 456.109375 834.699219 454.746094 837.035156 453.867188 Z M 771.121094 464.355469 C 772.523438 463.433594 774.035156 460.414062 774.769531 457.0625 C 775.953125 451.660156 775.738281 446.230469 774.082031 439.5625 C 772.527344 433.316406 769.488281 423.777344 767.75 419.6875 C 767.433594 418.949219 766.617188 416.835938 765.925781 414.992188 C 764.621094 411.492188 764.183594 410.824219 763.558594 411.390625 C 763.046875 411.855469 762.980469 413.265625 763.363281 415.539062 C 763.734375 417.75 764.371094 419.929688 766.65625 426.792969 C 770.285156 437.703125 772.0625 445.585938 771.949219 450.285156 C 771.855469 454.066406 770.875 459.203125 769.625 462.429688 C 769.28125 463.328125 769.007812 464.121094 769.019531 464.195312 C 769.066406 464.453125 769.847656 464.890625 770.160156 464.835938 C 770.335938 464.804688 770.769531 464.589844 771.121094 464.355469 Z M 822.441406 442.335938 C 826.21875 440.457031 828.472656 438.613281 830.230469 435.96875 C 832.332031 432.8125 833.433594 429.1875 833.824219 424.121094 C 834 421.832031 833.980469 420.726562 833.746094 419.667969 C 833.445312 418.320312 833.40625 418.261719 832.839844 418.292969 C 832.335938 418.324219 832.152344 418.542969 831.570312 419.84375 C 831.199219 420.675781 830.402344 423.105469 829.804688 425.242188 C 828.496094 429.921875 827.710938 431.847656 826.3125 433.796875 C 823.90625 437.15625 818.125 440.042969 814.375 439.753906 C 812.386719 439.597656 811.203125 439.1875 809.46875 438.042969 C 805.726562 435.574219 802.941406 431.335938 800.453125 424.335938 C 799.070312 420.445312 798.726562 419.796875 798.128906 419.90625 C 797.121094 420.09375 796.8125 421.453125 797.136719 424.285156 C 797.546875 427.867188 798.941406 431.511719 801.378906 435.394531 C 804.640625 440.589844 809.632812 443.941406 814.464844 444.179688 C 816.625 444.285156 820.175781 443.464844 822.441406 442.335938 Z M 818.125 426.296875 C 818.6875 425.898438 819.222656 425.4375 819.316406 425.269531 C 819.433594 425.0625 819.265625 424.089844 818.796875 422.292969 C 817.574219 417.566406 817.15625 412.277344 817.585938 406.976562 C 818.070312 400.980469 819.238281 395.796875 820.785156 392.773438 L 821.632812 391.125 L 820.914062 390.398438 C 819.433594 388.902344 816.238281 388.789062 812.597656 390.105469 L 811.300781 390.574219 L 810.503906 392.445312 C 807.566406 399.316406 806.386719 408.714844 807.597656 415.589844 C 808.300781 419.566406 810.171875 423.933594 811.996094 425.847656 C 813.894531 427.847656 815.742188 427.984375 818.121094 426.296875 Z M 822.769531 419.203125 C 824.988281 413.035156 825.648438 403.1875 824.214844 397.648438 C 823.671875 395.554688 822.898438 393.414062 822.695312 393.449219 C 822.449219 393.492188 821.519531 397.261719 821.019531 400.222656 C 819.78125 407.605469 819.726562 413.457031 820.839844 419.664062 L 821.332031 422.402344 L 821.734375 421.683594 C 821.957031 421.289062 822.421875 420.171875 822.769531 419.203125 Z M 834.726562 406.628906 C 834.960938 405.394531 834.75 404.894531 834.078125 405.113281 C 833.542969 405.289062 833.148438 406.902344 833.5 407.488281 C 833.902344 408.15625 834.511719 407.726562 834.726562 406.628906 Z M 798.527344 412.628906 C 798.839844 412.039062 798.722656 410.945312 798.300781 410.519531 C 797.8125 410.03125 797.519531 410.054688 797.078125 410.625 C 796.695312 411.117188 796.851562 412.515625 797.328125 412.847656 C 797.726562 413.128906 798.316406 413.019531 798.527344 412.628906 Z M 762.683594 404.066406 C 762.902344 403.484375 762.953125 402.796875 762.835938 402.023438 C 762.679688 401.011719 762.574219 400.8125 762.027344 400.535156 C 760.332031 399.664062 759.238281 402.617188 760.597656 404.398438 C 761.085938 405.039062 761.710938 405.328125 762.09375 405.097656 C 762.234375 405.011719 762.5 404.550781 762.683594 404.066406 Z M 789.511719 390.921875 C 791.539062 385.976562 793.839844 381.851562 796.683594 378.082031 C 797.109375 377.519531 797.441406 376.992188 797.425781 376.90625 C 797.410156 376.824219 796.1875 377.152344 794.707031 377.640625 C 787.550781 379.992188 785.011719 382.503906 784.28125 387.957031 C 784.085938 389.402344 784.910156 395.484375 785.746094 398.757812 L 786.261719 400.789062 L 787.34375 397.179688 C 787.941406 395.195312 788.914062 392.378906 789.511719 390.925781 Z M 730.691406 401.152344 C 731.363281 400.652344 732.992188 399.222656 734.316406 397.980469 C 735.640625 396.734375 737.203125 395.316406 737.792969 394.832031 C 740.570312 392.558594 744.4375 390.589844 747.886719 389.703125 L 749.855469 389.199219 L 749.890625 387.738281 C 750 382.957031 751.546875 377.824219 753.921875 374.347656 C 754.519531 373.472656 754.914062 372.777344 754.796875 372.796875 C 754.136719 372.914062 750.4375 374.371094 748.117188 375.425781 C 741.414062 378.472656 736.386719 382.34375 732.992188 387.085938 C 731.070312 389.773438 729.699219 393.324219 729.152344 397.035156 C 728.917969 398.632812 729.042969 402.140625 729.335938 402.089844 C 729.410156 402.078125 730.023438 401.65625 730.691406 401.152344 Z M 730.691406 401.152344 " fill-opacity="1" fill-rule="nonzero"/></g></g></g><path stroke-linecap="butt" transform="matrix(0.39522, 0, 0, 0.39522, 883.499962, 398.361415)" fill="none" stroke-linejoin="miter" d="M 81.283921 92.269373 C 79.554267 92.269373 78.200196 93.58391 78.200196 95.313563 C 78.200196 101.81706 72.250188 107.569393 65.568784 107.569393 C 58.452496 107.569393 52.887954 101.81706 52.887954 95.313563 L 52.887954 57.369911 C 52.887954 48.148387 62.662967 40.893727 73.050771 46.843734 C 75.90717 48.573388 78.200196 52.783858 78.200196 56.243165 L 78.200196 57.18212 C 78.200196 58.723982 79.554267 60.265844 81.283921 60.265844 L 124.979906 60.265844 C 126.294443 60.265844 127.648514 58.911773 127.648514 57.369911 L 127.648514 53.90072 C 127.648514 22.509983 97.562429 -2.802259 65.568784 -2.802259 C 34.118745 -2.802259 3.29138 22.509983 3.29138 53.90072 L 3.29138 97.231007 C 3.29138 129.797909 34.118745 155.288058 65.568784 155.288058 C 97.562429 155.288058 127.648514 129.797909 127.648514 97.231007 L 127.648514 94.937981 C 127.648514 93.58391 126.294443 92.269373 124.979906 92.269373 Z M 196.62709 -2.614468 C 165.186934 -2.614468 134.171778 22.697774 134.171778 54.325721 L 134.171778 97.982171 C 134.171778 130.776399 165.186934 156.276431 196.62709 156.276431 C 228.81841 156.276431 259.092285 130.776399 259.092285 97.982171 L 259.092285 54.325721 C 259.092285 22.697774 228.81841 -2.614468 196.62709 -2.614468 Z M 209.446292 96.064727 C 209.446292 102.607758 203.506168 108.369975 196.62709 108.369975 C 189.520685 108.369975 183.995678 102.607758 183.995678 96.064727 L 183.995678 57.745492 C 183.995678 50.866414 189.520685 45.104197 196.62709 45.104197 C 203.506168 45.104197 209.446292 50.866414 209.446292 57.745492 Z M 334.030752 -0.133651 L 282.467315 -0.133651 C 274.421956 -0.133651 268.669623 6.607056 268.669623 13.664041 L 268.669623 138.446176 C 268.669623 145.325254 274.421956 152.441542 282.467315 152.441542 L 334.030752 152.441542 C 364.116837 152.441542 387.086633 128.107791 387.086633 99.148452 L 387.086633 52.971649 C 387.086633 24.01231 364.116837 -0.133651 334.030752 -0.133651 Z M 340.346458 80.764708 C 340.346458 88.810067 334.406334 94.374609 326.538882 94.374609 L 317.376661 94.374609 C 316.012706 94.374609 314.658634 93.396119 314.658634 91.103093 L 314.658634 61.204799 C 314.658634 58.723982 316.012706 57.557701 317.376661 57.557701 L 326.538882 57.557701 C 334.406334 57.557701 340.346458 63.310034 340.346458 71.543184 Z M 451.686715 41.269309 L 490.559438 41.269309 C 496.133864 41.269309 500.759451 36.683256 500.759451 31.306505 L 500.759451 9.829153 C 500.759451 4.314029 496.133864 -0.133651 490.559438 -0.133651 L 412.191316 -0.133651 C 404.333748 -0.133651 398.205833 5.994264 398.205833 10.441944 L 398.205833 135.17466 C 398.205833 146.501419 404.333748 152.629333 412.191316 152.629333 L 490.559438 152.629333 C 496.133864 152.629333 500.759451 148.231072 500.759451 142.656646 L 500.759451 121.189177 C 500.759451 115.614752 496.133864 110.840908 490.559438 110.840908 L 451.686715 110.840908 C 450.935551 110.840908 450.32276 110.287419 450.32276 109.486837 L 450.32276 97.231007 C 450.32276 96.479844 450.935551 95.876936 451.686715 95.876936 L 479.845471 95.876936 C 484.856524 95.876936 489.066995 91.844373 489.066995 86.704831 L 489.066995 65.790851 C 489.066995 60.829217 484.856524 56.618747 479.845471 56.618747 L 451.686715 56.618747 C 450.935551 56.618747 450.32276 56.005955 450.32276 55.452466 L 450.32276 42.821055 C 450.32276 42.257682 450.935551 41.269309 451.686715 41.269309 Z M 451.686715 41.269309 " stroke="#ff66c4" stroke-width="12.696613" stroke-opacity="1" stroke-miterlimit="4"/><path stroke-linecap="butt" transform="matrix(0.39522, 0, 0, 0.39522, 355.499988, 398.361415)" fill="none" stroke-linejoin="miter" d="M 316.496942 101.253687 L 279.106778 101.253687 L 279.106778 15.215787 C 279.106778 6.972754 271.812583 -0.321442 263.955015 -0.321442 L 241.726498 -0.321442 C 233.493348 -0.321442 227.741015 6.972754 227.741015 15.215787 L 227.741015 140.36362 C 227.741015 147.242699 232.139277 153.004915 240.421845 153.004915 L 316.496942 153.004915 C 323.553927 153.004915 329.316144 147.242699 329.316144 140.36362 L 329.316144 114.685681 C 329.316144 107.569393 323.553927 101.253687 316.496942 101.253687 Z M 395.428437 41.269309 L 434.30116 41.269309 C 439.875586 41.269309 444.501173 36.683256 444.501173 31.306505 L 444.501173 9.829153 C 444.501173 4.314029 439.875586 -0.133651 434.30116 -0.133651 L 355.933038 -0.133651 C 348.07547 -0.133651 341.947555 5.994264 341.947555 10.441944 L 341.947555 135.17466 C 341.947555 146.501419 348.07547 152.629333 355.933038 152.629333 L 434.30116 152.629333 C 439.875586 152.629333 444.501173 148.231072 444.501173 142.656646 L 444.501173 121.189177 C 444.501173 115.614752 439.875586 110.840908 434.30116 110.840908 L 395.428437 110.840908 C 394.677273 110.840908 394.064482 110.287419 394.064482 109.486837 L 394.064482 97.231007 C 394.064482 96.479844 394.677273 95.876936 395.428437 95.876936 L 423.587193 95.876936 C 428.598246 95.876936 432.808717 91.844373 432.808717 86.704831 L 432.808717 65.790851 C 432.808717 60.829217 428.598246 56.618747 423.587193 56.618747 L 395.428437 56.618747 C 394.677273 56.618747 394.064482 56.005955 394.064482 55.452466 L 394.064482 42.821055 C 394.064482 42.257682 394.677273 41.269309 395.428437 41.269309 Z M 597.00718 136.904313 L 564.440279 12.922761 C 563.876906 10.629735 563.273998 7.160545 560.60539 4.07682 C 557.748991 1.220421 554.101893 0.469257 551.393751 0.469257 L 501.184385 0.469257 C 498.327986 0.469257 495.619843 1.408212 493.751817 2.950074 C 491.834373 4.314029 489.679719 6.607056 488.928555 10.016944 L 454.444209 136.716523 C 452.902347 142.844437 455.758746 149.347934 461.511079 151.828751 C 463.052941 152.629333 464.594803 152.817124 466.522131 152.817124 L 492.575653 152.817124 C 499.642522 152.817124 502.54834 148.418863 505.394855 141.114784 L 510.969281 126.190346 L 540.304202 126.190346 L 546.056534 141.114784 C 548.912933 148.418863 551.808867 153.004915 558.875737 153.004915 L 584.939142 153.004915 C 587.044377 153.004915 589.149612 152.441542 590.691475 151.453169 C 595.880435 148.784561 598.361252 142.656646 597.00718 136.904313 Z M 534.729776 81.881569 L 516.909405 81.881569 C 514.99196 81.881569 513.440214 80.201335 514.428587 78.28389 L 519.390222 65.227479 L 523.22511 55.264675 C 524.015809 52.783858 527.435581 52.783858 528.226279 55.264675 L 532.248959 65.227479 L 537.210593 78.28389 C 537.823384 80.201335 536.459429 81.881569 534.729776 81.881569 Z M 726.177693 136.716523 L 714.297445 90.164138 C 713.921863 88.622276 713.546281 87.455995 712.93349 86.51704 C 721.354431 76.554237 726.741065 64.288524 726.741065 47.585014 C 726.741065 18.299512 709.899184 -0.133651 688.985204 -0.133651 L 619.828721 0.0541403 C 612.346735 0.0541403 606.406611 6.182055 606.406611 17.133232 L 606.406611 139.19734 C 606.406611 146.313628 612.346735 152.441542 619.828721 152.441542 L 644.350263 152.441542 C 648.185152 152.441542 652.020041 150.889796 654.500858 147.806071 C 657.960164 143.971183 657.772373 141.865948 657.772373 138.821758 L 657.772373 106.818229 C 657.772373 106.442647 657.960164 105.651948 658.711328 105.651948 C 659.462492 105.651948 659.877609 106.254856 659.877609 106.630438 L 661.379936 114.49789 L 666.381105 137.843268 C 668.29855 146.501419 676.71949 152.441542 683.222987 152.441542 L 714.297445 152.441542 C 721.779431 152.441542 728.095137 145.700836 726.177693 136.716523 Z M 675.177628 52.596067 L 675.177628 55.264675 C 675.177628 61.39259 670.038087 66.58155 663.900288 66.58155 L 660.253191 66.58155 C 658.711328 66.58155 657.772373 65.41527 657.772373 64.061198 L 657.772373 43.562335 C 657.772373 42.257682 658.711328 41.081518 660.253191 41.081518 L 663.900288 41.081518 C 670.038087 41.081518 675.177628 46.280362 675.177628 52.596067 Z M 851.295874 -0.133651 L 827.149913 -0.133651 C 819.667927 -0.133651 813.164431 5.994264 813.164431 13.664041 L 813.164431 58.723982 L 790.748123 8.900082 C 788.642888 3.513447 783.453928 -0.133651 777.50392 -0.133651 L 753.367843 -0.133651 C 745.698066 -0.133651 739.372477 5.994264 739.372477 13.664041 L 739.372477 141.678157 C 739.372477 149.347934 745.698066 155.475849 753.367843 155.475849 L 777.50392 155.475849 C 785.371372 155.475849 791.499287 149.347934 791.499287 141.678157 L 791.499287 98.585079 L 813.955129 146.125837 C 816.248155 151.453169 821.021999 155.475849 827.149913 155.475849 L 851.295874 155.475849 C 859.153442 155.475849 865.281357 149.347934 865.281357 141.678157 L 865.281357 13.664041 C 865.281357 5.994264 859.153442 -0.133651 851.295874 -0.133651 Z M 851.295874 -0.133651 " stroke="#b2edef" stroke-width="13.175732" stroke-opacity="1" stroke-miterlimit="4"/></svg>