<svg xmlns="http://www.w3.org/2000/svg" xmlns:xlink="http://www.w3.org/1999/xlink" width="1920" zoomAndPan="magnify" viewBox="0 0 1440 809.999993" height="1080" preserveAspectRatio="xMidYMid meet" version="1.0"><path stroke-linecap="butt" transform="matrix(0.75, 0, 0, 0.75, 401.22362, 335.000012)" fill="none" stroke-linejoin="miter" d="M 64.863302 118.677073 L 30.946634 118.677073 L 30.946634 48.755195 L 5.618507 48.755195 L 5.618507 143.999991 L 64.863302 143.999991 Z M 100.087262 71.802071 L 134.003931 71.802071 L 134.003931 48.755195 L 74.759136 48.755195 L 74.759136 143.999991 L 134.003931 143.999991 L 134.003931 120.953115 L 100.087262 120.953115 L 100.087262 107.609364 L 134.003931 107.609364 L 134.003931 85.145822 L 100.087262 85.145822 Z M 194.759142 130.296866 L 198.76435 143.999991 L 223.306018 143.999991 L 194.95185 48.755195 L 169.238307 48.755195 L 140.462264 143.999991 L 165.233099 143.999991 L 169.040391 130.296866 Z M 188.279975 107.99999 L 175.878933 107.99999 L 181.998725 80.55728 Z M 288.066438 102.854156 C 294.352897 97.906239 297.608105 89.90103 297.608105 79.255196 C 297.608105 59.822904 287.12373 48.755195 268.665396 48.755195 L 229.80081 48.755195 L 229.80081 143.999991 L 255.123728 143.999991 L 255.123728 109.916656 L 263.686229 109.916656 C 270.358104 111.807281 273.972688 117.145823 273.972688 125.348949 L 273.972688 143.999991 L 297.21748 143.999991 L 297.21748 128.374991 C 297.21748 116.947907 293.993522 108.390615 288.066438 102.854156 Z M 266.550812 87.61978 L 255.123728 87.61978 L 255.123728 71.802071 L 266.550812 71.802071 C 271.889354 71.802071 275.113313 74.666654 275.113313 79.80728 C 275.113313 84.755197 271.889354 87.61978 266.550812 87.61978 Z M 307.514356 143.999991 L 332.837274 143.999991 L 332.837274 99.437489 L 354.160192 143.999991 L 375.316443 143.999991 L 375.316443 48.755195 L 349.993525 48.755195 L 349.993525 93.156239 L 328.639357 48.755195 L 307.514356 48.755195 Z M 472.087281 108.942698 L 472.087281 83.812488 L 452.654988 83.812488 L 452.654988 62.656237 L 427.30082 62.656237 L 427.30082 83.812488 L 407.899778 83.812488 L 407.899778 108.942698 L 427.30082 108.942698 L 427.30082 130.098949 L 452.654988 130.098949 L 452.654988 108.942698 Z M 574.342494 143.999991 L 574.733119 92.765614 L 538.540409 92.765614 L 538.540409 110.473948 L 546.154993 110.473948 C 544.623743 116.755198 542.149784 120.010407 539.123743 120.010407 C 532.253951 120.010407 528.25395 111.609365 528.25395 96.374989 C 528.25395 81.145821 532.253951 72.776029 539.123743 72.776029 C 544.623743 72.776029 548.269576 78.083321 549.410201 87.817697 L 573.988328 83.062488 C 570.925828 60.182279 558.556035 47.421861 539.123743 47.421861 C 516.274783 47.421861 503.514366 65.161446 503.514366 96.374989 C 503.514366 127.62499 516.274783 145.333325 539.123743 145.333325 C 547.13416 145.333325 554.16541 141.135408 560.056035 133.520824 L 562.920619 143.999991 Z M 643.675831 102.854156 C 649.957082 97.906239 653.21229 89.90103 653.21229 79.255196 C 653.21229 59.822904 642.727914 48.755195 624.274789 48.755195 L 585.404995 48.755195 L 585.404995 143.999991 L 610.733121 143.999991 L 610.733121 109.916656 L 619.290413 109.916656 C 625.967497 111.807281 629.576872 117.145823 629.576872 125.348949 L 629.576872 143.999991 L 652.821665 143.999991 L 652.821665 128.374991 C 652.821665 116.947907 649.597706 108.390615 643.675831 102.854156 Z M 622.154997 87.61978 L 610.733121 87.61978 L 610.733121 71.802071 L 622.154997 71.802071 C 627.493539 71.802071 630.717497 74.666654 630.717497 79.80728 C 630.717497 84.755197 627.493539 87.61978 622.154997 87.61978 Z M 698.535209 145.333325 C 721.774793 145.333325 735.123752 127.62499 735.123752 96.374989 C 735.123752 65.161446 721.774793 47.421861 698.535209 47.421861 C 675.290416 47.421861 662.175832 65.161446 662.175832 96.374989 C 662.175832 127.62499 675.290416 145.333325 698.535209 145.333325 Z M 698.727917 120.010407 C 691.113334 120.010407 686.910208 111.609365 686.910208 96.374989 C 686.910208 81.145821 691.113334 72.776029 698.727917 72.776029 C 705.957084 72.776029 709.957085 81.145821 710.34771 96.374989 C 709.957085 111.609365 705.957084 120.010407 698.727917 120.010407 Z M 848.24355 48.755195 L 825.003965 48.755195 L 814.51959 104.937489 L 803.878964 48.755195 L 785.38938 48.755195 L 774.905004 104.937489 L 764.457087 48.755195 L 741.217503 48.755195 L 764.066462 143.999991 L 784.998755 143.999991 L 794.727922 98.296864 L 804.233131 143.999991 L 825.39459 143.999991 Z M 848.24355 48.755195 " stroke="#ffffff" stroke-width="2.583327" stroke-opacity="1" stroke-miterlimit="4"/></svg>