<svg xmlns="http://www.w3.org/2000/svg" xmlns:xlink="http://www.w3.org/1999/xlink" width="1920" zoomAndPan="magnify" viewBox="0 0 1440 809.999993" height="1080" preserveAspectRatio="xMidYMid meet" version="1.0"><path stroke-linecap="butt" transform="matrix(0.75, 0, 0, 0.75, 358.248036, 335.000012)" fill="none" stroke-linejoin="miter" d="M 29.22137 114.338531 L 29.22137 35.921861 C 29.22137 30.322902 24.695328 25.79686 19.096369 25.79686 L 4.023452 25.79686 C 8.940119 33.416652 8.940119 46.078111 8.940119 51.124987 L 8.940119 119.416657 C 8.940119 123.682282 12.424494 126.99999 16.554703 126.99999 L 65.481788 126.99999 C 69.486997 126.739574 72.934914 124.463532 74.69533 121.010407 C 75.606789 118.994782 76.549497 116.614573 77.330747 114.338531 Z M 105.351582 38.458319 L 136.403667 38.458319 C 140.539084 38.458319 144.278667 35.921861 145.877626 32.078111 L 148.414084 25.79686 L 80.153664 25.79686 C 85.070331 33.416652 85.070331 46.078111 85.070331 51.124987 L 85.070331 116.87499 C 85.070331 122.473949 89.627623 126.99999 95.226582 126.99999 L 136.403667 126.99999 C 140.539084 126.99999 144.278667 124.463532 145.877626 120.588532 C 145.877626 120.588532 147.731792 115.932282 148.153668 114.338531 C 141.612001 114.338531 113.877624 114.338531 105.351582 114.338531 Z M 120.549499 66.322904 C 116.549499 66.322904 112.023457 68.734363 110.393249 72.609363 L 107.88804 78.984363 L 128.138042 78.984363 C 132.26825 78.984363 136.664084 76.479155 138.289084 72.739571 L 140.7995 66.322904 Z M 201.737004 32.338527 C 200.273462 28.468736 196.52867 25.79686 192.393253 25.79686 L 178.007836 25.79686 L 182.007836 36.473944 L 150.664084 120.197907 C 149.492209 123.552074 151.867209 126.99999 155.351585 126.99999 L 168.403669 126.99999 C 164.528668 123.12499 165.21096 118.734365 167.330752 112.87499 C 167.330752 112.744781 167.330752 112.744781 167.330752 112.614573 L 169.606794 106.718739 L 171.46096 101.677073 L 191.742211 101.677073 C 195.065128 101.677073 197.992212 99.656239 199.195337 96.598947 L 201.21617 91.520822 L 175.335961 91.520822 L 189.075545 54.86457 L 213.877629 120.458323 C 215.471379 124.463532 219.216171 126.99999 223.351588 126.99999 L 237.737005 126.99999 Z M 283.466174 82.598947 L 283.466174 82.468738 C 283.335966 82.468738 283.335966 82.33853 283.335966 82.208322 C 305.596384 82.208322 318.132843 70.458321 318.132843 54.86457 C 318.132843 40.479153 308.528676 26.348944 283.205758 25.79686 L 241.080756 25.79686 C 245.997422 33.416652 245.997422 46.078111 245.997422 51.124987 L 245.997422 116.87499 C 245.997422 122.473949 250.554714 126.99999 256.153673 126.99999 L 271.32034 126.99999 C 266.278673 119.416657 266.278673 106.718739 266.278673 101.677073 L 266.278673 35.921861 L 278.549507 35.921861 C 292.414091 35.921861 298.664092 44.874986 298.664092 54.86457 C 298.664092 67.140612 292.122425 75.145821 279.460966 75.145821 L 278.127632 75.145821 C 274.122424 75.27603 273.60159 75.927071 269.596382 85.270822 L 273.210965 85.270822 C 291.601591 85.270822 291.601591 119.416657 309.210967 128.203116 L 325.617218 117.265615 C 305.596384 101.937489 304.945342 84.880197 283.466174 82.598947 Z M 402.93493 25.79686 L 395.320347 25.79686 C 397.856805 33.416652 397.856805 46.078111 397.856805 46.078111 L 397.856805 99.005197 L 358.794303 31.135402 C 356.257845 27.130194 352.252636 25.79686 347.471386 25.79686 L 332.138052 25.79686 C 334.544302 33.416652 334.544302 46.078111 334.544302 46.078111 L 334.544302 121.921865 C 334.544302 124.723949 336.794302 126.99999 339.591177 126.99999 L 349.747428 126.99999 C 347.210969 119.416657 347.210969 106.718739 347.210969 106.718739 L 347.210969 51.807278 L 391.99743 128.333324 L 410.518264 114.46874 L 410.518264 33.416652 C 410.518264 29.281236 407.070347 25.79686 402.93493 25.79686 Z M 492.26306 73.812488 L 484.809934 73.812488 L 484.809934 58.999987 C 484.809934 54.05207 480.804726 50.08332 475.726601 50.08332 L 466.25785 50.08332 C 467.330767 52.197903 467.8516 60.072904 467.8516 66.880196 L 467.8516 73.812488 L 453.200558 73.812488 C 448.252641 73.812488 444.252641 77.812488 444.252641 82.729155 L 444.252641 92.203114 C 446.398474 91.130197 454.278683 90.609364 461.049517 90.609364 L 467.8516 90.609364 L 467.8516 103.791656 L 467.981809 103.791656 L 467.981809 105.385406 C 467.981809 110.333323 471.987017 114.338531 476.934934 114.338531 L 486.403685 114.338531 C 485.330768 112.057281 484.809934 104.213531 484.809934 97.541656 L 484.809934 90.609364 L 499.455769 90.609364 C 505.315144 90.218739 508.539102 86.604155 508.539102 81.52603 L 508.539102 72.052071 C 506.263061 73.130196 498.934935 73.812488 492.26306 73.812488 Z M 621.06515 109.260406 L 621.06515 84.880197 C 621.06515 80.874988 617.872441 77.65103 613.872441 77.65103 L 588.382856 77.65103 C 584.934939 77.812488 583.205773 78.854155 579.335981 87.80728 L 602.117232 87.80728 L 602.117232 95.947906 C 602.117232 101.807281 595.18494 115.802073 583.856814 115.802073 C 572.398481 115.802073 562.408897 108.057281 562.408897 77.65103 C 562.408897 46.078111 574.257856 34.588527 585.846398 34.588527 L 585.846398 34.749986 C 604.658899 34.749986 604.658899 59.130195 596.127648 67.531237 C 596.127648 67.531237 605.179732 64.338529 613.575566 60.723945 C 626.5339 55.124987 624.94015 24.593735 585.846398 24.593735 C 555.471396 24.593735 538.934937 52.067695 538.934937 78.984363 C 538.934937 105.807281 550.263063 128.463532 577.054731 128.463532 C 589.976606 128.463532 598.408899 118.864573 602.117232 110.463531 L 602.117232 117.005198 C 602.117232 122.604157 606.643274 127.130199 612.242233 127.130199 L 624.94015 127.130199 C 621.06515 120.880198 621.06515 114.338531 621.06515 109.260406 Z M 674.648486 82.598947 L 674.648486 82.468738 C 674.518277 82.468738 674.518277 82.33853 674.518277 82.208322 C 696.783903 82.208322 709.315154 70.458321 709.315154 54.86457 C 709.315154 40.479153 699.710987 26.348944 674.388069 25.79686 L 632.268275 25.79686 C 637.184942 33.416652 637.184942 46.078111 637.184942 51.124987 L 637.184942 116.87499 C 637.184942 122.473949 641.737026 126.99999 647.335984 126.99999 L 662.50786 126.99999 C 657.460985 119.416657 657.460985 106.718739 657.460985 101.677073 L 657.460985 35.921861 L 669.731819 35.921861 C 683.601611 35.921861 689.851611 44.874986 689.851611 54.86457 C 689.851611 67.140612 683.309944 75.145821 670.643277 75.145821 L 669.309944 75.145821 C 665.304735 75.27603 664.783902 75.927071 660.783902 85.270822 L 664.393277 85.270822 C 682.789111 85.270822 682.789111 119.416657 700.398487 128.203116 L 716.804738 117.265615 C 696.783903 101.937489 696.132862 84.880197 674.648486 82.598947 Z M 769.445365 24.593735 C 736.507864 24.593735 721.466196 49.526028 721.466196 76.479155 C 721.466196 103.270823 736.507864 128.333324 769.445365 128.333324 C 802.388075 128.333324 817.591201 103.270823 817.591201 76.479155 C 817.591201 49.526028 802.388075 24.593735 769.445365 24.593735 Z M 769.445365 118.213532 C 754.247448 118.213532 744.122448 108.057281 744.122448 76.479155 C 744.122448 44.744778 754.247448 34.588527 769.445365 34.588527 L 769.445365 34.749986 C 784.648491 34.749986 794.773492 44.744778 794.773492 76.479155 C 794.773492 108.057281 784.648491 118.213532 769.445365 118.213532 Z M 959.169333 25.79686 C 955.846416 25.79686 952.36725 25.79686 952.36725 25.79686 L 942.794332 25.79686 C 948.783916 31.786444 948.523499 36.734361 945.856833 44.744778 L 945.726624 45.005195 L 945.299541 46.078111 L 925.054748 103.921864 L 900.122455 32.598944 C 898.783914 28.598944 894.914122 25.79686 890.648497 25.79686 C 884.398496 25.79686 876.257871 25.79686 876.257871 25.79686 L 880.523496 37.807278 L 881.856829 41.682278 C 885.049538 51.67707 885.049538 58.869779 881.565163 68.864571 L 869.19537 104.052073 L 844.653703 32.598944 C 843.190161 28.598944 839.315161 25.79686 835.049535 25.79686 C 828.768285 25.79686 820.794326 25.79686 820.794326 25.79686 L 852.528703 116.87499 C 854.643286 122.864574 860.372453 126.99999 866.78912 126.99999 L 873.721412 126.99999 L 875.315162 122.34374 L 892.632872 72.739571 L 907.835997 115.932282 C 910.112039 122.604157 916.39329 126.99999 923.460998 126.99999 L 930.914124 126.99999 L 932.117249 123.81249 L 963.987042 32.598944 C 965.190167 29.281236 962.6485 25.79686 959.169333 25.79686 Z M 959.169333 25.79686 " stroke="#ffffff" stroke-width="9.166644" stroke-opacity="1" stroke-miterlimit="4"/></svg>