<svg xmlns="http://www.w3.org/2000/svg" xmlns:xlink="http://www.w3.org/1999/xlink" width="1280" zoomAndPan="magnify" viewBox="0 0 960 540.000001" height="720" preserveAspectRatio="xMidYMid meet" version="1.0"><defs><clipPath id="0f5a1a2010"><path d="M 460 166 L 600.78125 166 L 600.78125 301 L 460 301 Z M 460 166 " clip-rule="nonzero"/></clipPath><clipPath id="15996dd729"><path d="M 389 340 L 405 340 L 405 377.199219 L 389 377.199219 Z M 389 340 " clip-rule="nonzero"/></clipPath><clipPath id="95e22cb6e7"><path d="M 410 336 L 426 336 L 426 377.199219 L 410 377.199219 Z M 410 336 " clip-rule="nonzero"/></clipPath><clipPath id="064dc87a53"><path d="M 333.523438 212 L 453 212 L 453 339 L 333.523438 339 Z M 333.523438 212 " clip-rule="nonzero"/></clipPath></defs><path fill="#000000" d="M 486.519531 299.0625 L 486.519531 365.78125 C 486.519531 371.351562 491.035156 375.867188 496.597656 375.867188 C 502.164062 375.867188 506.675781 371.351562 506.675781 365.78125 L 506.675781 302.105469 C 506.007812 302.03125 505.34375 301.953125 504.65625 301.871094 C 497.445312 300.996094 491.472656 300.039062 486.519531 299.0625 Z M 486.519531 299.0625 " fill-opacity="1" fill-rule="nonzero"/><path fill="#000000" d="M 512.703125 302.742188 L 512.703125 365.78125 C 512.703125 371.351562 517.21875 375.867188 522.78125 375.867188 C 528.347656 375.867188 532.855469 371.351562 532.855469 365.78125 L 532.855469 303.613281 C 527.886719 303.75 521.320312 303.550781 512.703125 302.742188 Z M 512.703125 302.742188 " fill-opacity="1" fill-rule="nonzero"/><path fill="#000000" d="M 510.050781 184.28125 C 521.566406 187.535156 533.535156 180.832031 536.789062 169.304688 C 540.039062 157.78125 533.339844 145.796875 521.824219 142.542969 C 510.308594 139.289062 498.339844 145.992188 495.085938 157.519531 C 491.835938 169.042969 498.535156 181.027344 510.050781 184.28125 Z M 524.421875 171.132812 C 511.160156 187.296875 501.660156 168.882812 501.660156 168.882812 C 510.527344 174.175781 524.421875 171.132812 524.421875 171.132812 Z M 524.421875 171.132812 " fill-opacity="1" fill-rule="nonzero"/><g clip-path="url(#0f5a1a2010)"><path fill="#000000" d="M 598.410156 190.449219 L 565.496094 198.484375 L 560.542969 199.691406 C 557.660156 197.808594 554.78125 193.386719 552.625 184.207031 C 550.050781 173.242188 545.0625 168.3125 539.75 166.292969 C 539.601562 167.507812 539.359375 168.722656 539.019531 169.9375 C 538.414062 172.085938 537.523438 174.082031 536.414062 175.898438 C 537.980469 178.554688 539.074219 182.308594 540.300781 186.214844 C 544.703125 188.273438 547.671875 190.328125 549.226562 191.535156 C 550.800781 192.546875 552.070312 194.035156 552.753906 195.855469 L 554.179688 199.640625 L 551.507812 199.125 L 550.585938 196.675781 C 550.023438 195.183594 548.980469 194.019531 547.699219 193.289062 C 545.132812 191.328125 538.511719 186.9375 527.757812 184.285156 C 522.375 187.335938 515.828125 188.324219 509.417969 186.515625 C 506.558594 185.703125 503.964844 184.402344 501.703125 182.730469 C 492.46875 183.972656 487.335938 186.824219 487.335938 186.824219 C 487.335938 186.824219 487.34375 186.84375 487.34375 186.847656 C 486.609375 187.226562 485.945312 187.746094 485.386719 188.394531 C 485.121094 188.703125 484.878906 189.039062 484.667969 189.40625 L 464.648438 224.359375 L 461.675781 229.542969 C 461.648438 229.589844 461.628906 229.636719 461.601562 229.6875 C 461.546875 229.792969 461.488281 229.902344 461.4375 230.011719 C 461.394531 230.101562 461.355469 230.1875 461.320312 230.28125 C 461.273438 230.386719 461.234375 230.492188 461.195312 230.601562 C 461.160156 230.699219 461.125 230.792969 461.097656 230.890625 C 461.066406 230.996094 461.035156 231.105469 461.007812 231.214844 C 460.984375 231.3125 460.960938 231.410156 460.941406 231.511719 C 460.917969 231.621094 460.898438 231.730469 460.882812 231.839844 C 460.867188 231.941406 460.855469 232.042969 460.84375 232.140625 C 460.832031 232.253906 460.824219 232.367188 460.820312 232.476562 C 460.816406 232.578125 460.8125 232.679688 460.8125 232.78125 C 460.8125 232.890625 460.816406 233.003906 460.820312 233.113281 C 460.824219 233.21875 460.832031 233.324219 460.84375 233.429688 C 460.851562 233.535156 460.867188 233.640625 460.882812 233.746094 C 460.898438 233.859375 460.917969 233.972656 460.9375 234.082031 C 460.949219 234.140625 460.957031 234.195312 460.96875 234.253906 C 460.976562 234.28125 460.988281 234.304688 460.996094 234.332031 C 461.070312 234.652344 461.167969 234.960938 461.292969 235.265625 C 461.316406 235.328125 461.34375 235.386719 461.371094 235.445312 C 461.5 235.738281 461.644531 236.023438 461.816406 236.300781 C 461.839844 236.335938 461.867188 236.371094 461.894531 236.410156 C 462.0625 236.667969 462.253906 236.917969 462.460938 237.152344 C 462.480469 237.175781 462.5 237.203125 462.523438 237.226562 C 462.734375 237.460938 462.972656 237.675781 463.222656 237.878906 C 463.273438 237.921875 463.320312 237.960938 463.371094 238 C 463.601562 238.175781 463.839844 238.34375 464.101562 238.492188 C 464.117188 238.503906 464.136719 238.507812 464.15625 238.519531 C 464.230469 238.5625 464.308594 238.59375 464.382812 238.632812 C 464.609375 238.746094 464.835938 238.851562 465.070312 238.9375 C 465.167969 238.976562 465.269531 239.007812 465.371094 239.039062 C 465.601562 239.113281 465.832031 239.171875 466.0625 239.21875 C 466.160156 239.238281 466.257812 239.261719 466.359375 239.277344 C 466.683594 239.328125 467.011719 239.359375 467.339844 239.359375 C 467.34375 239.359375 467.347656 239.363281 467.351562 239.363281 C 467.613281 239.363281 467.878906 239.34375 468.148438 239.308594 C 468.230469 239.300781 468.308594 239.28125 468.390625 239.269531 C 468.527344 239.246094 468.667969 239.230469 468.804688 239.199219 L 507.746094 230.371094 C 511.273438 229.570312 513.488281 226.0625 512.6875 222.53125 C 511.890625 218.996094 508.371094 216.78125 504.851562 217.582031 L 480.460938 223.113281 L 482.027344 220.378906 L 489.71875 206.949219 L 491.507812 203.828125 C 492.390625 208.449219 493.09375 213.394531 493.226562 217.839844 L 504.339844 215.320312 C 504.984375 215.171875 505.644531 215.097656 506.304688 215.097656 C 506.378906 215.097656 506.453125 215.105469 506.53125 215.109375 C 508.890625 207.199219 511.609375 200.042969 514.988281 195.652344 L 555.769531 203.546875 L 539.90625 274.679688 L 497.269531 265.402344 L 500.933594 236.355469 C 501.117188 235.632812 501.300781 234.898438 501.484375 234.167969 L 488.832031 237.039062 L 465.398438 288.726562 C 465.398438 288.726562 470.753906 294.710938 505.019531 298.867188 C 539.285156 303.023438 545.910156 298.492188 545.910156 298.492188 L 542.144531 278.3125 L 544.988281 277.082031 L 579.667969 262.074219 C 580.113281 261.882812 580.457031 261.515625 580.625 261.0625 C 580.757812 260.699219 583.195312 253.96875 585.074219 243.277344 C 585.214844 242.476562 585.351562 241.65625 585.488281 240.808594 L 589.210938 239.980469 C 592.738281 239.195312 594.96875 235.695312 594.183594 232.160156 C 593.464844 228.929688 590.480469 226.796875 587.277344 227.054688 C 587.40625 226.285156 587.550781 225.503906 587.710938 224.710938 C 589.882812 213.832031 594.566406 200.617188 600.226562 193.238281 C 600.683594 192.644531 600.710938 191.828125 600.304688 191.199219 C 599.894531 190.570312 599.140625 190.273438 598.410156 190.449219 Z M 583.09375 231.636719 C 581.734375 245.914062 578.472656 256.40625 577.554688 259.144531 L 543.722656 273.785156 L 553.4375 230.226562 L 559.371094 203.613281 L 594.828125 194.957031 C 588.707031 205.191406 584.097656 221.085938 583.09375 231.636719 Z M 583.09375 231.636719 " fill-opacity="1" fill-rule="nonzero"/></g><path fill="#000000" d="M 527.308594 219.007812 C 528.179688 219.0625 535.089844 220.746094 536.46875 221.292969 C 537.292969 221.617188 539.1875 221.976562 541.019531 222.320312 C 542.363281 222.578125 544.207031 222.925781 544.535156 223.09375 L 545.226562 221.746094 C 544.730469 221.492188 543.472656 221.246094 541.300781 220.835938 C 539.617188 220.519531 537.714844 220.15625 537.023438 219.886719 C 535.429688 219.253906 528.441406 217.5625 527.402344 217.496094 C 526.261719 217.425781 521.785156 216.777344 521.226562 216.5 C 520.535156 216.078125 517.148438 215.5 515.722656 215.269531 L 515.480469 216.761719 C 517.558594 217.097656 520.046875 217.585938 520.4375 217.789062 C 521.332031 218.339844 526.8125 218.976562 527.308594 219.007812 Z M 527.308594 219.007812 " fill-opacity="1" fill-rule="nonzero"/><path fill="#000000" d="M 530.097656 210.269531 C 531.066406 210.367188 537.640625 211.976562 538.890625 212.472656 C 539.757812 212.816406 541.347656 213.128906 543.667969 213.566406 C 544.8125 213.785156 546.535156 214.109375 546.847656 214.21875 L 548.683594 210.628906 C 548.058594 210.308594 547.019531 210.09375 544.417969 209.601562 C 542.953125 209.328125 540.949219 208.945312 540.371094 208.71875 C 538.8125 208.101562 531.613281 206.320312 530.367188 206.246094 C 529.375 206.183594 525.496094 205.628906 524.632812 205.351562 C 524.238281 205.140625 523.175781 204.734375 518.808594 204.03125 L 518.167969 208.011719 C 519.996094 208.308594 522.265625 208.746094 522.796875 208.945312 C 524.351562 209.71875 530.058594 210.269531 530.097656 210.269531 Z M 530.097656 210.269531 " fill-opacity="1" fill-rule="nonzero"/><path fill="#000000" d="M 514.679688 221.09375 C 516.714844 221.429688 519.066406 221.894531 519.441406 222.089844 C 520.347656 222.644531 525.820312 223.277344 526.316406 223.308594 C 527.1875 223.363281 534.097656 225.046875 535.476562 225.59375 C 536.296875 225.917969 538.191406 226.277344 540.027344 226.625 C 541.371094 226.878906 543.214844 227.226562 543.542969 227.394531 L 544.230469 226.046875 C 543.734375 225.792969 542.480469 225.546875 540.304688 225.136719 C 538.625 224.820312 536.71875 224.457031 536.03125 224.1875 C 534.4375 223.554688 527.449219 221.863281 526.40625 221.796875 C 525.269531 221.726562 520.796875 221.082031 520.230469 220.800781 C 519.539062 220.378906 516.152344 219.800781 514.726562 219.570312 L 514.542969 220.722656 C 514.589844 220.84375 514.636719 220.96875 514.679688 221.09375 Z M 514.679688 221.09375 " fill-opacity="1" fill-rule="nonzero"/><path fill="#000000" d="M 524.5625 230.886719 C 524.765625 230.902344 525.597656 231.054688 527.269531 231.441406 L 527.613281 229.96875 C 526.523438 229.714844 525.125 229.40625 524.65625 229.375 C 523.515625 229.308594 519.042969 228.660156 518.480469 228.382812 C 517.976562 228.074219 516.039062 227.679688 514.472656 227.402344 C 514.285156 227.851562 514.066406 228.292969 513.800781 228.710938 C 513.777344 228.746094 513.753906 228.777344 513.730469 228.8125 C 515.539062 229.125 517.363281 229.5 517.691406 229.671875 C 518.59375 230.226562 524.066406 230.855469 524.5625 230.886719 Z M 524.5625 230.886719 " fill-opacity="1" fill-rule="nonzero"/><path fill="#000000" d="M 523.566406 235.191406 C 523.636719 235.195312 524.0625 235.238281 525.964844 235.671875 L 526.300781 234.195312 C 524.894531 233.875 524.007812 233.699219 523.664062 233.679688 C 522.523438 233.609375 518.042969 232.960938 517.484375 232.683594 C 516.792969 232.261719 513.40625 231.679688 511.980469 231.449219 L 511.742188 232.945312 C 513.816406 233.277344 516.308594 233.769531 516.695312 233.972656 C 517.59375 234.523438 523.070312 235.160156 523.566406 235.191406 Z M 523.566406 235.191406 " fill-opacity="1" fill-rule="nonzero"/><path fill="#000000" d="M 516.160156 238.417969 C 515.46875 237.996094 512.082031 237.417969 510.65625 237.1875 L 510.414062 238.679688 C 512.492188 239.015625 514.980469 239.503906 515.367188 239.707031 C 516.265625 240.257812 521.746094 240.894531 522.246094 240.925781 C 522.304688 240.929688 522.691406 240.964844 524.382812 241.347656 L 524.714844 239.871094 C 522.816406 239.445312 522.453125 239.421875 522.335938 239.414062 C 521.195312 239.34375 516.71875 238.695312 516.160156 238.417969 Z M 516.160156 238.417969 " fill-opacity="1" fill-rule="nonzero"/><path fill="#000000" d="M 535.238281 247.054688 C 533.558594 246.738281 531.652344 246.378906 530.960938 246.105469 C 529.371094 245.472656 522.378906 243.78125 521.339844 243.714844 C 520.203125 243.644531 515.726562 243 515.164062 242.71875 C 514.472656 242.296875 511.085938 241.71875 509.660156 241.488281 L 509.417969 242.980469 C 511.496094 243.316406 513.984375 243.808594 514.375 244.007812 C 515.28125 244.5625 520.753906 245.195312 521.25 245.226562 C 522.117188 245.28125 529.027344 246.964844 530.40625 247.511719 C 531.230469 247.835938 533.125 248.195312 534.957031 248.542969 C 536.304688 248.796875 538.144531 249.144531 538.476562 249.3125 L 539.164062 247.964844 C 538.667969 247.710938 537.414062 247.464844 535.238281 247.054688 Z M 535.238281 247.054688 " fill-opacity="1" fill-rule="nonzero"/><path fill="#000000" d="M 534.824219 230.003906 C 532.699219 229.808594 530.816406 229.171875 530.796875 229.164062 L 530.113281 228.933594 L 529.851562 229.601562 C 529.652344 230.097656 527.929688 234.496094 527.882812 235.898438 C 527.851562 236.917969 527.109375 240.667969 526.824219 242.027344 L 526.703125 242.613281 L 527.246094 242.867188 C 527.332031 242.90625 529.429688 243.867188 533.304688 244.351562 C 536.917969 244.804688 538.871094 245.691406 538.890625 245.699219 L 539.558594 246.011719 L 539.886719 245.347656 C 540.117188 244.882812 542.132812 240.726562 542.042969 238.554688 C 541.964844 236.652344 542.917969 232.941406 542.925781 232.902344 L 543.105469 232.222656 L 542.4375 231.996094 C 542.222656 231.925781 537.132812 230.21875 534.824219 230.003906 Z M 540.53125 238.617188 C 540.585938 239.914062 539.503906 242.574219 538.828125 244.050781 C 537.914062 243.722656 536.117188 243.179688 533.492188 242.851562 C 530.976562 242.535156 529.253906 242.003906 528.433594 241.710938 C 528.714844 240.320312 529.363281 237.03125 529.394531 235.945312 C 529.417969 235.183594 530.308594 232.621094 531.003906 230.808594 C 531.792969 231.03125 533.167969 231.371094 534.6875 231.511719 C 536.359375 231.664062 539.84375 232.746094 541.296875 233.214844 C 541.007812 234.441406 540.464844 237.007812 540.53125 238.617188 Z M 540.53125 238.617188 " fill-opacity="1" fill-rule="nonzero"/><path fill="#000000" d="M 566.136719 210.050781 C 563.894531 210.050781 561.0625 211.386719 560.742188 211.539062 L 562.273438 214.71875 C 562.890625 214.421875 564.910156 213.582031 566.128906 213.582031 C 566.144531 213.582031 566.15625 213.582031 566.171875 213.582031 C 567.378906 213.59375 573.234375 211.949219 576.605469 210.960938 C 579.152344 210.214844 585.105469 208.375 585.105469 208.375 L 584.0625 205.003906 C 584.0625 205.003906 578.144531 206.828125 575.613281 207.570312 C 571.046875 208.914062 566.902344 210.003906 566.234375 210.054688 C 566.203125 210.054688 566.171875 210.050781 566.136719 210.050781 Z M 566.136719 210.050781 " fill-opacity="1" fill-rule="nonzero"/><path fill="#000000" d="M 577.839844 235.171875 C 577.726562 235.191406 574.972656 235.613281 573.292969 236.382812 C 571.796875 237.070312 568.359375 237.683594 568.324219 237.6875 L 568.183594 237.726562 C 568.140625 237.742188 563.886719 239.375 561.925781 239.402344 C 559.6875 239.4375 556.101562 240.90625 555.949219 240.96875 L 556.523438 242.367188 C 556.558594 242.351562 559.992188 240.945312 561.949219 240.914062 C 564.054688 240.882812 568.066406 239.390625 568.660156 239.164062 C 569.191406 239.070312 572.359375 238.472656 573.921875 237.757812 C 575.40625 237.078125 578.042969 236.671875 578.066406 236.667969 Z M 577.839844 235.171875 " fill-opacity="1" fill-rule="nonzero"/><path fill="#000000" d="M 568.035156 243.898438 C 568.566406 243.800781 571.734375 243.207031 573.296875 242.492188 C 574.78125 241.8125 577.417969 241.40625 577.441406 241.402344 L 577.21875 239.90625 C 577.101562 239.921875 574.347656 240.347656 572.667969 241.117188 C 571.171875 241.800781 567.734375 242.414062 567.699219 242.421875 L 567.558594 242.460938 C 566.371094 242.917969 562.929688 244.109375 561.300781 244.136719 C 559.0625 244.167969 555.476562 245.636719 555.324219 245.699219 L 555.902344 247.097656 C 555.9375 247.085938 559.367188 245.675781 561.324219 245.648438 C 563.429688 245.617188 567.441406 244.121094 568.035156 243.898438 Z M 568.035156 243.898438 " fill-opacity="1" fill-rule="nonzero"/><path fill="#000000" d="M 572.5625 218.582031 L 572.410156 218.335938 C 571.558594 216.972656 566.640625 218.648438 565.664062 218.996094 C 565.125 219.1875 563.996094 219.316406 562.996094 219.425781 C 561.957031 219.542969 561.0625 219.640625 560.519531 219.824219 L 560.117188 219.957031 L 560.023438 220.367188 C 559.957031 220.644531 558.433594 227.152344 558.019531 229.21875 C 557.867188 229.980469 557.585938 230.996094 557.3125 231.980469 C 556.574219 234.632812 556.445312 235.25 556.738281 235.726562 L 556.957031 236.042969 L 557.28125 236.105469 C 557.296875 236.109375 557.3125 236.109375 557.335938 236.109375 C 558.382812 236.109375 568.699219 233.433594 569.570312 231.910156 C 570.527344 230.234375 572.496094 218.980469 572.515625 218.867188 Z M 568.289062 231.113281 C 567.550781 231.90625 560.695312 233.894531 558.222656 234.460938 C 558.355469 233.875 558.585938 233.050781 558.769531 232.386719 C 559.050781 231.375 559.339844 230.332031 559.503906 229.515625 C 559.851562 227.78125 561.027344 222.707031 561.390625 221.164062 C 561.847656 221.078125 562.515625 221.003906 563.164062 220.929688 C 564.296875 220.804688 565.46875 220.671875 566.171875 220.421875 C 567.464844 219.957031 569.847656 219.355469 570.90625 219.296875 C 569.988281 224.476562 568.746094 230.300781 568.289062 231.113281 Z M 568.289062 231.113281 " fill-opacity="1" fill-rule="nonzero"/><path fill="#000000" d="M 581.601562 217.160156 C 579.371094 218.199219 574.808594 219.265625 574.761719 219.277344 L 575.101562 220.75 C 575.296875 220.707031 579.867188 219.636719 582.238281 218.535156 Z M 581.601562 217.160156 " fill-opacity="1" fill-rule="nonzero"/><path fill="#000000" d="M 573.242188 224.710938 L 573.792969 226.117188 C 575.195312 225.566406 577.441406 224.78125 578.042969 224.753906 C 579.125 224.710938 581.578125 223.652344 582.058594 223.441406 L 581.449219 222.058594 C 580.363281 222.535156 578.570312 223.21875 577.976562 223.242188 C 576.90625 223.289062 573.84375 224.472656 573.242188 224.710938 Z M 573.242188 224.710938 " fill-opacity="1" fill-rule="nonzero"/><path fill="#000000" d="M 576.695312 228.800781 C 575.625 228.84375 572.5625 230.03125 571.960938 230.269531 L 572.511719 231.675781 C 573.914062 231.125 576.160156 230.335938 576.761719 230.3125 C 577.84375 230.265625 580.296875 229.210938 580.777344 229 L 580.167969 227.613281 C 579.082031 228.09375 577.289062 228.777344 576.695312 228.800781 Z M 576.695312 228.800781 " fill-opacity="1" fill-rule="nonzero"/><path fill="#000000" d="M 571.332031 246.304688 C 569.894531 246.996094 568.265625 247.777344 567.457031 247.886719 C 564.824219 248.234375 564.867188 252.230469 564.882812 253.734375 L 564.882812 253.964844 C 564.882812 254.3125 564.539062 255.519531 564.3125 256.316406 C 563.738281 258.316406 563.585938 258.855469 564.210938 259.222656 C 564.320312 259.289062 564.46875 259.332031 564.625 259.332031 C 564.8125 259.332031 565.011719 259.269531 565.179688 259.097656 C 565.445312 258.917969 566.960938 258.371094 568.179688 257.933594 C 573.011719 256.191406 574.679688 255.464844 575.023438 254.605469 C 575.128906 254.34375 575.121094 254.066406 575.023438 253.886719 C 574.9375 253.449219 575.492188 251.542969 575.859375 250.28125 C 576.796875 247.054688 577.097656 245.773438 576.519531 245.09375 C 575.785156 244.21875 574.316406 244.871094 571.332031 246.304688 Z M 574.40625 249.859375 C 573.746094 252.140625 573.429688 253.351562 573.523438 254.085938 C 572.710938 254.691406 569.464844 255.859375 567.664062 256.507812 C 566.773438 256.832031 566.109375 257.074219 565.613281 257.261719 C 565.664062 257.082031 565.71875 256.898438 565.765625 256.734375 C 566.144531 255.398438 566.394531 254.484375 566.394531 253.964844 L 566.394531 253.71875 C 566.355469 250.277344 567.058594 249.464844 567.652344 249.386719 C 568.703125 249.246094 570.296875 248.480469 571.988281 247.667969 C 573.050781 247.15625 574.578125 246.421875 575.300781 246.25 C 575.234375 247.027344 574.726562 248.761719 574.40625 249.859375 Z M 574.40625 249.859375 " fill-opacity="1" fill-rule="nonzero"/><path fill="#000000" d="M 558.058594 251.074219 C 556.605469 250.957031 552.484375 253.066406 551.671875 253.488281 L 552.367188 254.832031 C 554.523438 253.714844 557.285156 252.523438 557.964844 252.582031 C 559.46875 252.65625 562.070312 251.320312 562.363281 251.164062 L 561.652344 249.828125 C 560.695312 250.335938 558.898438 251.09375 558.058594 251.074219 Z M 558.058594 251.074219 " fill-opacity="1" fill-rule="nonzero"/><path fill="#000000" d="M 519.367188 258.316406 C 518.671875 258.179688 517.714844 257.996094 517.4375 257.835938 C 516.667969 257.390625 513.050781 256.214844 512.359375 256.296875 C 511.949219 256.3125 510.050781 256.132812 509.769531 256.007812 C 509.640625 255.886719 509.246094 255.519531 506.792969 255.179688 L 506.585938 256.679688 C 507.550781 256.8125 508.582031 257.035156 508.738281 257.113281 C 509.445312 257.773438 512.429688 257.816406 512.417969 257.804688 C 512.890625 257.835938 516.011719 258.757812 516.679688 259.144531 C 517.144531 259.414062 517.933594 259.578125 519.082031 259.800781 C 519.621094 259.90625 520.4375 260.0625 520.59375 260.140625 L 521.519531 258.945312 C 521.167969 258.671875 520.539062 258.542969 519.367188 258.316406 Z M 519.367188 258.316406 " fill-opacity="1" fill-rule="nonzero"/><path fill="#000000" d="M 517.683594 253.671875 C 516.914062 253.230469 513.296875 252.097656 512.605469 252.136719 C 512.191406 252.15625 510.296875 251.972656 510.015625 251.847656 C 509.886719 251.726562 509.492188 251.359375 507.039062 251.019531 L 506.832031 252.519531 C 507.796875 252.652344 508.828125 252.875 508.984375 252.953125 C 509.679688 253.605469 512.597656 253.644531 512.660156 253.644531 C 512.664062 253.644531 512.664062 253.644531 512.664062 253.644531 C 513.136719 253.675781 516.257812 254.597656 516.925781 254.984375 C 517.390625 255.253906 518.179688 255.417969 519.328125 255.640625 C 519.867188 255.742188 520.683594 255.902344 520.839844 255.980469 L 521.765625 254.785156 C 521.414062 254.511719 520.785156 254.378906 519.613281 254.152344 C 518.917969 254.019531 517.960938 253.835938 517.683594 253.671875 Z M 517.683594 253.671875 " fill-opacity="1" fill-rule="nonzero"/><path fill="#000000" d="M 517.019531 262.011719 L 514.804688 261.214844 L 514.578125 261.171875 C 513.453125 261.128906 512.046875 260.988281 511.828125 260.898438 C 511.246094 260.355469 508.558594 259.542969 508.300781 259.515625 C 508.113281 259.496094 505.789062 259.335938 505.789062 259.335938 L 505.6875 260.847656 C 505.6875 260.847656 507.960938 261 508.097656 261.011719 C 508.488281 261.097656 510.484375 261.773438 510.792969 262.003906 C 510.941406 262.140625 511.386719 262.558594 514.40625 262.679688 L 516.507812 263.433594 Z M 517.019531 262.011719 " fill-opacity="1" fill-rule="nonzero"/><path fill="#000000" d="M 535.285156 262.257812 C 534.8125 262.183594 534.027344 262.058594 533.832031 261.9375 C 533.183594 261.535156 530.25 260.585938 529.589844 260.710938 C 529.292969 260.75 528.042969 260.699219 527.699219 260.578125 C 527.507812 260.417969 526.988281 260.117188 525.261719 259.960938 L 525.121094 261.46875 C 525.820312 261.53125 526.589844 261.671875 526.695312 261.707031 C 527.363281 262.386719 529.707031 262.210938 529.753906 262.207031 C 530.164062 262.230469 532.546875 262.921875 533.039062 263.226562 C 533.457031 263.484375 534.105469 263.601562 535.042969 263.753906 C 535.441406 263.816406 536.039062 263.914062 536.136719 263.949219 L 537.109375 262.789062 C 536.773438 262.511719 536.226562 262.410156 535.285156 262.257812 Z M 535.285156 262.257812 " fill-opacity="1" fill-rule="nonzero"/><path fill="#000000" d="M 535.121094 258.097656 C 534.652344 258.023438 533.867188 257.894531 533.671875 257.777344 C 533.019531 257.375 530.085938 256.421875 529.429688 256.546875 C 529.132812 256.589844 527.882812 256.535156 527.535156 256.414062 C 527.347656 256.257812 526.828125 255.957031 525.097656 255.800781 L 524.960938 257.304688 C 525.660156 257.371094 526.425781 257.511719 526.53125 257.546875 C 527.203125 258.222656 529.546875 258.046875 529.589844 258.046875 C 530.003906 258.066406 532.386719 258.757812 532.878906 259.0625 C 533.296875 259.324219 533.945312 259.441406 534.882812 259.589844 C 535.28125 259.65625 535.878906 259.753906 535.976562 259.789062 L 536.945312 258.628906 C 536.613281 258.347656 536.0625 258.25 535.121094 258.097656 Z M 535.121094 258.097656 " fill-opacity="1" fill-rule="nonzero"/><g clip-path="url(#15996dd729)"><path fill="#000000" d="M 389.25 341.566406 L 389.25 369.210938 C 389.25 373.535156 392.753906 377.042969 397.078125 377.042969 C 401.398438 377.042969 404.902344 373.535156 404.902344 369.210938 L 404.902344 340.863281 C 399.660156 341.453125 395.324219 341.613281 392.171875 341.613281 C 391.109375 341.613281 390.132812 341.59375 389.25 341.566406 Z M 389.25 341.566406 " fill-opacity="1" fill-rule="nonzero"/></g><g clip-path="url(#95e22cb6e7)"><path fill="#000000" d="M 410.320312 340.144531 L 410.320312 369.210938 C 410.320312 373.535156 413.828125 377.042969 418.152344 377.042969 C 422.472656 377.042969 425.976562 373.535156 425.976562 369.210938 L 425.976562 336.785156 C 422.890625 337.640625 419.480469 338.464844 415.746094 339.195312 C 413.871094 339.5625 412.058594 339.875 410.320312 340.144531 Z M 410.320312 340.144531 " fill-opacity="1" fill-rule="nonzero"/></g><path fill="#000000" d="M 388.992188 274.210938 L 389.679688 275.558594 C 390.007812 275.390625 391.851562 275.042969 393.195312 274.789062 C 395.027344 274.441406 396.925781 274.085938 397.746094 273.757812 C 399.125 273.214844 406.035156 271.527344 406.90625 271.472656 C 407.402344 271.445312 412.878906 270.808594 413.769531 270.261719 C 414.167969 270.054688 416.65625 269.5625 418.734375 269.230469 L 418.496094 267.734375 C 417.070312 267.964844 413.679688 268.542969 413.003906 268.957031 C 412.429688 269.242188 407.953125 269.894531 406.8125 269.964844 C 405.773438 270.027344 398.78125 271.722656 397.191406 272.351562 C 396.5 272.625 394.597656 272.984375 392.914062 273.304688 C 390.742188 273.714844 389.488281 273.957031 388.992188 274.210938 Z M 388.992188 274.210938 " fill-opacity="1" fill-rule="nonzero"/><path fill="#000000" d="M 395.324219 264.9375 C 396.574219 264.445312 403.148438 262.832031 404.097656 262.738281 C 404.15625 262.734375 409.878906 262.175781 411.417969 261.414062 C 411.945312 261.214844 414.21875 260.773438 416.050781 260.480469 L 415.410156 256.496094 C 411.042969 257.199219 409.976562 257.609375 409.585938 257.820312 C 408.722656 258.097656 404.78125 258.652344 403.847656 258.710938 C 402.597656 258.789062 395.398438 260.570312 393.84375 261.1875 C 393.265625 261.414062 391.261719 261.792969 389.796875 262.070312 C 387.199219 262.5625 386.15625 262.777344 385.53125 263.097656 L 387.289062 266.726562 C 387.679688 266.578125 389.40625 266.25 390.546875 266.035156 C 392.867188 265.597656 394.457031 265.28125 395.324219 264.9375 Z M 395.324219 264.9375 " fill-opacity="1" fill-rule="nonzero"/><path fill="#000000" d="M 394.191406 279.089844 C 396.023438 278.746094 397.917969 278.386719 398.742188 278.0625 C 400.121094 277.515625 407.03125 275.828125 407.902344 275.777344 C 408.398438 275.746094 413.875 275.109375 414.765625 274.5625 C 415.164062 274.355469 417.652344 273.867188 419.730469 273.53125 L 419.488281 272.039062 C 418.0625 272.265625 414.675781 272.847656 414 273.261719 C 413.425781 273.546875 408.949219 274.195312 407.808594 274.265625 C 406.769531 274.332031 399.777344 276.023438 398.1875 276.65625 C 397.496094 276.925781 395.589844 277.285156 393.910156 277.605469 C 391.734375 278.015625 390.480469 278.261719 389.984375 278.515625 L 390.671875 279.863281 C 391.003906 279.691406 392.847656 279.34375 394.191406 279.089844 Z M 394.191406 279.089844 " fill-opacity="1" fill-rule="nonzero"/><path fill="#000000" d="M 394.34375 285.1875 C 394.839844 285.15625 400.3125 284.527344 401.207031 283.976562 C 401.605469 283.769531 404.09375 283.277344 406.171875 282.941406 L 405.929688 281.449219 C 404.503906 281.675781 401.117188 282.257812 400.441406 282.671875 C 399.863281 282.960938 395.390625 283.605469 394.25 283.675781 C 393.78125 283.707031 392.386719 284.011719 391.296875 284.265625 L 391.636719 285.738281 C 393.308594 285.351562 394.140625 285.199219 394.34375 285.1875 Z M 394.34375 285.1875 " fill-opacity="1" fill-rule="nonzero"/><path fill="#000000" d="M 395.242188 287.980469 C 394.804688 288.007812 393.566406 288.273438 392.605469 288.496094 L 392.941406 289.96875 C 394.410156 289.632812 395.148438 289.5 395.335938 289.488281 C 395.832031 289.457031 401.3125 288.824219 402.203125 288.277344 C 402.597656 288.070312 405.085938 287.578125 407.164062 287.242188 L 406.925781 285.75 C 405.5 285.980469 402.113281 286.558594 401.4375 286.972656 C 400.859375 287.257812 396.382812 287.90625 395.242188 287.980469 Z M 395.242188 287.980469 " fill-opacity="1" fill-rule="nonzero"/><path fill="#000000" d="M 402.761719 292.707031 C 402.183594 292.996094 397.710938 293.644531 396.570312 293.714844 C 396.449219 293.722656 396.085938 293.746094 394.1875 294.171875 L 394.523438 295.648438 C 396.214844 295.265625 396.605469 295.226562 396.664062 295.222656 C 397.160156 295.191406 402.632812 294.5625 403.527344 294.011719 C 403.925781 293.804688 406.414062 293.316406 408.492188 292.980469 L 408.25 291.488281 C 406.828125 291.714844 403.4375 292.296875 402.761719 292.707031 Z M 402.761719 292.707031 " fill-opacity="1" fill-rule="nonzero"/><path fill="#000000" d="M 403.808594 299.980469 C 405.1875 299.433594 412.097656 297.746094 412.96875 297.695312 C 413.464844 297.664062 418.941406 297.027344 419.832031 296.480469 C 420.230469 296.273438 422.71875 295.785156 424.796875 295.449219 L 424.554688 293.957031 C 423.132812 294.183594 419.742188 294.765625 419.066406 295.179688 C 418.492188 295.464844 414.015625 296.113281 412.875 296.183594 C 411.835938 296.25 404.84375 297.941406 403.253906 298.574219 C 402.566406 298.84375 400.660156 299.203125 398.976562 299.523438 C 396.804688 299.933594 395.546875 300.179688 395.050781 300.433594 L 395.742188 301.78125 C 396.070312 301.609375 397.914062 301.261719 399.257812 301.007812 C 401.089844 300.664062 402.988281 300.304688 403.808594 299.980469 Z M 403.808594 299.980469 " fill-opacity="1" fill-rule="nonzero"/><path fill="#000000" d="M 411.472656 292.652344 L 411.800781 293.3125 L 412.46875 293.003906 C 412.488281 292.996094 414.4375 292.109375 418.050781 291.65625 C 421.925781 291.171875 424.023438 290.210938 424.109375 290.171875 L 424.65625 289.917969 L 424.53125 289.328125 C 424.25 287.972656 423.503906 284.222656 423.472656 283.199219 C 423.429688 281.796875 421.703125 277.402344 421.507812 276.90625 L 421.242188 276.234375 L 420.558594 276.46875 C 420.542969 276.476562 418.65625 277.109375 416.53125 277.308594 C 414.222656 277.523438 409.136719 279.226562 408.921875 279.300781 L 408.253906 279.527344 L 408.429688 280.207031 C 408.4375 280.246094 409.390625 283.953125 409.316406 285.859375 C 409.226562 288.03125 411.242188 292.1875 411.472656 292.652344 Z M 416.671875 278.8125 C 418.1875 278.671875 419.5625 278.335938 420.355469 278.113281 C 421.046875 279.925781 421.9375 282.488281 421.960938 283.246094 C 421.996094 284.335938 422.640625 287.625 422.925781 289.015625 C 422.101562 289.308594 420.382812 289.839844 417.867188 290.152344 C 415.242188 290.484375 413.445312 291.023438 412.53125 291.355469 C 411.855469 289.878906 410.773438 287.21875 410.824219 285.921875 C 410.890625 284.3125 410.347656 281.746094 410.0625 280.519531 C 411.515625 280.050781 415 278.96875 416.671875 278.8125 Z M 416.671875 278.8125 " fill-opacity="1" fill-rule="nonzero"/><path fill="#000000" d="M 368.019531 266.050781 C 368.039062 266.050781 368.0625 266.050781 368.085938 266.050781 C 369.167969 266.050781 371.019531 266.746094 371.945312 267.1875 L 373.472656 264.007812 C 373.15625 263.851562 370.324219 262.519531 368.132812 262.519531 C 368.101562 262.519531 368.070312 262.523438 368.039062 262.523438 C 367.3125 262.46875 363.167969 261.378906 358.605469 260.039062 C 356.070312 259.296875 350.152344 257.46875 350.152344 257.46875 L 349.113281 260.84375 C 349.113281 260.84375 355.066406 262.679688 357.613281 263.429688 C 360.960938 264.410156 366.742188 266.050781 368.019531 266.050781 Z M 368.019531 266.050781 " fill-opacity="1" fill-rule="nonzero"/><path fill="#000000" d="M 365.558594 291.632812 C 366.152344 291.859375 370.160156 293.351562 372.269531 293.382812 C 374.21875 293.410156 377.65625 294.820312 377.691406 294.835938 L 378.265625 293.4375 C 378.117188 293.375 374.53125 291.902344 372.292969 291.871094 C 370.328125 291.839844 366.074219 290.210938 366.03125 290.195312 L 365.894531 290.15625 C 365.859375 290.152344 362.417969 289.535156 360.925781 288.851562 C 359.246094 288.082031 356.492188 287.660156 356.375 287.640625 L 356.148438 289.136719 C 356.175781 289.140625 358.808594 289.546875 360.296875 290.226562 C 361.855469 290.941406 365.027344 291.535156 365.558594 291.632812 Z M 365.558594 291.632812 " fill-opacity="1" fill-rule="nonzero"/><path fill="#000000" d="M 366.183594 296.363281 C 366.777344 296.589844 370.785156 298.082031 372.890625 298.117188 C 374.84375 298.144531 378.28125 299.550781 378.316406 299.566406 L 378.890625 298.167969 C 378.742188 298.105469 375.15625 296.636719 372.914062 296.601562 C 370.953125 296.570312 366.699219 294.945312 366.65625 294.925781 L 366.515625 294.886719 C 366.484375 294.882812 363.042969 294.269531 361.550781 293.582031 C 359.871094 292.8125 357.117188 292.390625 357 292.371094 L 356.773438 293.867188 C 356.800781 293.871094 359.433594 294.277344 360.917969 294.957031 C 362.480469 295.671875 365.652344 296.269531 366.183594 296.363281 Z M 366.183594 296.363281 " fill-opacity="1" fill-rule="nonzero"/><path fill="#000000" d="M 374.195312 272.835938 L 374.097656 272.425781 L 373.699219 272.289062 C 373.15625 272.109375 372.257812 272.011719 371.222656 271.894531 C 370.222656 271.78125 369.089844 271.65625 368.550781 271.464844 C 367.574219 271.113281 362.652344 269.445312 361.804688 270.804688 L 361.652344 271.046875 L 361.703125 271.332031 C 361.722656 271.445312 363.6875 282.695312 364.648438 284.378906 C 365.515625 285.898438 375.835938 288.578125 376.878906 288.578125 C 376.902344 288.578125 376.921875 288.578125 376.9375 288.574219 L 377.304688 288.472656 L 377.476562 288.195312 C 377.769531 287.714844 377.640625 287.101562 376.90625 284.453125 C 376.632812 283.46875 376.347656 282.449219 376.195312 281.6875 C 375.78125 279.617188 374.257812 273.113281 374.195312 272.835938 Z M 365.960938 283.628906 C 365.46875 282.769531 364.226562 276.941406 363.3125 271.761719 C 364.367188 271.824219 366.75 272.425781 368.042969 272.886719 C 368.746094 273.140625 369.917969 273.269531 371.054688 273.398438 C 371.703125 273.46875 372.367188 273.542969 372.828125 273.632812 C 373.1875 275.175781 374.367188 280.25 374.714844 281.984375 C 374.875 282.800781 375.167969 283.847656 375.449219 284.859375 C 375.632812 285.519531 375.859375 286.339844 375.996094 286.929688 C 373.519531 286.363281 366.671875 284.378906 365.960938 283.628906 Z M 365.960938 283.628906 " fill-opacity="1" fill-rule="nonzero"/><path fill="#000000" d="M 351.976562 271.003906 C 354.351562 272.105469 358.921875 273.171875 359.113281 273.21875 L 359.457031 271.746094 C 359.410156 271.734375 354.84375 270.667969 352.613281 269.628906 Z M 351.976562 271.003906 " fill-opacity="1" fill-rule="nonzero"/><path fill="#000000" d="M 356.175781 277.222656 C 356.777344 277.246094 359.019531 278.035156 360.421875 278.585938 L 360.976562 277.175781 C 360.371094 276.941406 357.308594 275.753906 356.238281 275.710938 C 355.648438 275.683594 353.851562 275 352.765625 274.523438 L 352.15625 275.910156 C 352.636719 276.121094 355.089844 277.175781 356.175781 277.222656 Z M 356.175781 277.222656 " fill-opacity="1" fill-rule="nonzero"/><path fill="#000000" d="M 354.046875 280.082031 L 353.4375 281.46875 C 353.917969 281.679688 356.371094 282.734375 357.457031 282.777344 C 358.058594 282.804688 360.300781 283.589844 361.703125 284.144531 L 362.257812 282.734375 C 361.652344 282.496094 358.589844 281.3125 357.519531 281.269531 C 356.929688 281.242188 355.132812 280.558594 354.046875 280.082031 Z M 354.046875 280.082031 " fill-opacity="1" fill-rule="nonzero"/><path fill="#000000" d="M 371.175781 310.238281 C 371.519531 311.097656 373.183594 311.824219 378.019531 313.566406 C 379.238281 314.003906 380.753906 314.550781 380.96875 314.683594 C 381.167969 314.886719 381.390625 314.960938 381.589844 314.960938 C 381.742188 314.960938 381.882812 314.917969 381.988281 314.855469 C 382.613281 314.488281 382.457031 313.949219 381.886719 311.949219 C 381.660156 311.148438 381.316406 309.945312 381.316406 309.597656 L 381.316406 309.367188 C 381.332031 307.863281 381.375 303.863281 378.742188 303.515625 C 377.929688 303.410156 376.300781 302.625 374.863281 301.933594 C 371.886719 300.503906 370.421875 299.847656 369.675781 300.722656 C 369.101562 301.40625 369.398438 302.6875 370.339844 305.914062 C 370.707031 307.175781 371.261719 309.082031 371.199219 309.453125 C 371.078125 309.699219 371.070312 309.976562 371.175781 310.238281 Z M 370.898438 301.882812 C 371.621094 302.054688 373.144531 302.789062 374.207031 303.300781 C 375.898438 304.109375 377.496094 304.878906 378.546875 305.015625 C 379.140625 305.09375 379.839844 305.910156 379.804688 309.351562 L 379.804688 309.597656 C 379.804688 310.117188 380.054688 311.03125 380.433594 312.363281 C 380.480469 312.53125 380.535156 312.710938 380.585938 312.894531 C 380.089844 312.703125 379.425781 312.464844 378.53125 312.140625 C 376.730469 311.492188 373.488281 310.320312 372.671875 309.71875 C 372.769531 308.984375 372.453125 307.773438 371.789062 305.492188 C 371.46875 304.394531 370.964844 302.660156 370.898438 301.882812 Z M 370.898438 301.882812 " fill-opacity="1" fill-rule="nonzero"/><path fill="#000000" d="M 367.425781 303.523438 L 368.121094 302.179688 C 367.3125 301.761719 363.246094 299.6875 361.734375 299.765625 C 360.972656 299.824219 359.101562 299.027344 358.140625 298.519531 L 357.433594 299.855469 C 357.722656 300.011719 360.339844 301.375 361.828125 301.273438 C 362.5625 301.253906 365.273438 302.40625 367.425781 303.523438 Z M 367.425781 303.523438 " fill-opacity="1" fill-rule="nonzero"/><path fill="#000000" d="M 358.695312 304.515625 L 357.988281 305.851562 C 358.28125 306.007812 360.855469 307.355469 362.382812 307.269531 C 363.042969 307.21875 365.828125 308.40625 367.980469 309.519531 L 368.675781 308.175781 C 367.867188 307.757812 363.757812 305.671875 362.289062 305.761719 C 361.480469 305.773438 359.652344 305.023438 358.695312 304.515625 Z M 358.695312 304.515625 " fill-opacity="1" fill-rule="nonzero"/><path fill="#000000" d="M 421.757812 310.273438 C 421.78125 310.28125 424.769531 310.242188 425.421875 309.625 C 425.636719 309.503906 426.667969 309.277344 427.628906 309.144531 L 427.421875 307.648438 C 424.972656 307.988281 424.578125 308.355469 424.523438 308.417969 C 424.164062 308.601562 422.246094 308.789062 421.859375 308.761719 C 421.140625 308.707031 417.550781 309.859375 416.78125 310.300781 C 416.5 310.460938 415.542969 310.648438 414.84375 310.785156 C 413.675781 311.007812 413.050781 311.140625 412.699219 311.410156 L 413.585938 312.632812 C 413.777344 312.53125 414.59375 312.375 415.132812 312.269531 C 416.28125 312.046875 417.070312 311.878906 417.535156 311.613281 C 418.203125 311.226562 421.328125 310.300781 421.757812 310.273438 Z M 421.757812 310.273438 " fill-opacity="1" fill-rule="nonzero"/><path fill="#000000" d="M 414.886719 308.105469 C 416.035156 307.886719 416.824219 307.71875 417.289062 307.449219 C 417.957031 307.066406 421.082031 306.144531 421.511719 306.113281 C 421.566406 306.101562 424.527344 306.078125 425.175781 305.464844 C 425.390625 305.34375 426.421875 305.117188 427.382812 304.984375 L 427.175781 303.488281 C 424.726562 303.828125 424.328125 304.195312 424.273438 304.257812 C 423.921875 304.441406 422.015625 304.621094 421.613281 304.601562 C 420.933594 304.539062 417.304688 305.699219 416.535156 306.140625 C 416.253906 306.300781 415.300781 306.488281 414.601562 306.621094 C 413.433594 306.847656 412.804688 306.980469 412.453125 307.25 L 413.34375 308.472656 C 413.53125 308.371094 414.347656 308.210938 414.886719 308.105469 Z M 414.886719 308.105469 " fill-opacity="1" fill-rule="nonzero"/><path fill="#000000" d="M 425.917969 311.980469 C 425.664062 312.007812 422.976562 312.816406 422.46875 313.308594 C 422.171875 313.453125 420.765625 313.597656 419.640625 313.640625 L 417.195312 314.476562 L 417.707031 315.902344 L 419.8125 315.144531 C 422.832031 315.027344 423.277344 314.609375 423.40625 314.484375 C 423.734375 314.238281 425.726562 313.5625 426.066406 313.488281 C 426.253906 313.46875 428.53125 313.3125 428.53125 313.3125 L 428.429688 311.804688 C 428.429688 311.804688 426.101562 311.964844 425.917969 311.980469 Z M 425.917969 311.980469 " fill-opacity="1" fill-rule="nonzero"/><path fill="#000000" d="M 406.519531 313.042969 C 406.171875 313.164062 404.921875 313.21875 404.628906 313.175781 C 403.96875 313.070312 401.03125 314.003906 400.382812 314.40625 C 400.1875 314.523438 399.402344 314.652344 398.933594 314.726562 C 397.992188 314.878906 397.441406 314.976562 397.109375 315.257812 L 398.023438 316.457031 C 398.175781 316.382812 398.773438 316.285156 399.171875 316.21875 C 400.113281 316.070312 400.757812 315.953125 401.175781 315.695312 C 401.671875 315.386719 404.054688 314.695312 404.375 314.667969 C 404.398438 314.671875 406.839844 314.867188 407.445312 314.238281 C 407.625 314.140625 408.394531 314 409.09375 313.933594 L 408.957031 312.429688 C 407.226562 312.585938 406.707031 312.886719 406.519531 313.042969 Z M 406.519531 313.042969 " fill-opacity="1" fill-rule="nonzero"/><path fill="#000000" d="M 406.679688 308.882812 C 406.332031 309.003906 405.082031 309.054688 404.792969 309.015625 C 404.140625 308.914062 401.195312 309.839844 400.542969 310.242188 C 400.351562 310.363281 399.5625 310.488281 399.09375 310.566406 C 398.152344 310.71875 397.601562 310.816406 397.269531 311.097656 L 398.183594 312.296875 C 398.335938 312.21875 398.9375 312.121094 399.332031 312.058594 C 400.273438 311.910156 400.917969 311.789062 401.339844 311.53125 C 401.832031 311.226562 404.214844 310.535156 404.535156 310.507812 C 404.558594 310.507812 407 310.707031 407.609375 310.074219 C 407.789062 309.976562 408.558594 309.835938 409.253906 309.773438 L 409.117188 308.265625 C 407.386719 308.425781 406.867188 308.722656 406.679688 308.882812 Z M 406.679688 308.882812 " fill-opacity="1" fill-rule="nonzero"/><g clip-path="url(#064dc87a53)"><path fill="#000000" d="M 449.417969 288.199219 C 449.617188 288.089844 449.804688 287.972656 449.984375 287.847656 C 450.027344 287.8125 450.074219 287.785156 450.117188 287.75 C 450.320312 287.597656 450.511719 287.433594 450.6875 287.257812 C 450.726562 287.214844 450.765625 287.175781 450.804688 287.132812 C 450.96875 286.957031 451.125 286.773438 451.265625 286.582031 C 451.28125 286.558594 451.300781 286.539062 451.316406 286.515625 C 451.464844 286.300781 451.59375 286.078125 451.710938 285.847656 C 451.738281 285.792969 451.765625 285.738281 451.789062 285.683594 C 451.902344 285.449219 451.996094 285.203125 452.070312 284.953125 C 452.078125 284.929688 452.089844 284.910156 452.097656 284.886719 C 452.113281 284.835938 452.121094 284.78125 452.132812 284.730469 C 452.15625 284.640625 452.179688 284.550781 452.199219 284.460938 C 452.21875 284.367188 452.234375 284.273438 452.25 284.183594 C 452.261719 284.097656 452.273438 284.015625 452.28125 283.929688 C 452.292969 283.832031 452.300781 283.734375 452.308594 283.632812 C 452.3125 283.554688 452.316406 283.476562 452.316406 283.394531 C 452.316406 283.292969 452.316406 283.191406 452.3125 283.089844 C 452.308594 283.011719 452.300781 282.933594 452.296875 282.855469 C 452.289062 282.753906 452.277344 282.652344 452.261719 282.550781 C 452.25 282.472656 452.238281 282.398438 452.222656 282.320312 C 452.203125 282.21875 452.183594 282.117188 452.160156 282.019531 C 452.140625 281.941406 452.121094 281.867188 452.097656 281.792969 C 452.070312 281.691406 452.035156 281.589844 452 281.488281 C 451.976562 281.417969 451.953125 281.351562 451.925781 281.28125 C 451.882812 281.175781 451.835938 281.074219 451.789062 280.96875 C 451.769531 280.933594 451.757812 280.894531 451.738281 280.855469 C 451.273438 279.925781 443.515625 264.761719 427.3125 255.679688 C 425.550781 251.410156 423.578125 247.730469 421.269531 245.035156 C 420.855469 244.554688 420.214844 244.332031 419.59375 244.453125 L 411.703125 245.980469 L 407.347656 246.824219 C 413.050781 242.527344 416.148438 235.222656 414.6875 227.738281 C 412.648438 217.296875 402.535156 210.488281 392.101562 212.527344 C 381.671875 214.570312 374.867188 224.691406 376.90625 235.132812 C 378.363281 242.589844 383.941406 248.171875 390.808594 250.023438 L 386.4375 250.871094 L 384.570312 251.230469 L 382.015625 251.726562 C 382.320312 250.714844 382.582031 249.679688 382.824219 248.648438 C 379.917969 246.449219 377.574219 243.53125 376.074219 240.117188 C 375.257812 241.9375 374.613281 244.144531 374.207031 246.839844 C 373.90625 248.863281 373.527344 250.570312 373.097656 252.019531 L 370.839844 251.464844 L 335.808594 242.914062 C 335.078125 242.738281 334.320312 243.039062 333.910156 243.664062 C 333.503906 244.292969 333.535156 245.109375 333.988281 245.703125 C 339.097656 252.363281 343.40625 263.773438 345.796875 273.933594 C 343.769531 274.265625 342.011719 275.707031 341.378906 277.808594 C 340.5 280.742188 342.164062 283.835938 345.09375 284.714844 L 347.71875 285.503906 C 349.414062 302.007812 353.417969 313.058594 353.59375 313.53125 C 353.757812 313.984375 354.105469 314.347656 354.546875 314.542969 L 378.96875 325.109375 L 382.136719 326.480469 C 382.550781 330.75 383.078125 334.699219 383.746094 338.125 C 383.746094 338.125 395.945312 339.988281 415.167969 336.226562 C 434.386719 332.464844 444.988281 326.140625 444.988281 326.140625 C 443.792969 320.023438 441.550781 312.527344 438.835938 304.664062 L 437.128906 291.148438 L 436.808594 288.605469 L 432.941406 287.472656 C 433.054688 287.921875 433.167969 288.375 433.28125 288.820312 L 436.949219 317.867188 L 394.308594 327.144531 L 378.445312 256.011719 L 419.226562 248.117188 C 423.078125 253.125 426.070312 261.714844 428.65625 270.925781 C 429.242188 270.78125 429.84375 270.683594 430.464844 270.683594 C 431.210938 270.683594 431.957031 270.792969 432.675781 271.003906 L 434.734375 271.605469 L 435.203125 274.160156 L 432.023438 273.230469 C 429.085938 272.367188 426.007812 274.054688 425.148438 276.996094 C 424.289062 279.9375 425.972656 283.015625 428.914062 283.875 L 437.449219 286.375 L 445.222656 288.652344 C 445.25 288.660156 445.277344 288.664062 445.308594 288.671875 C 445.515625 288.730469 445.730469 288.777344 445.945312 288.808594 C 445.96875 288.8125 445.996094 288.820312 446.019531 288.824219 C 446.25 288.855469 446.480469 288.867188 446.714844 288.871094 C 446.734375 288.871094 446.757812 288.875 446.78125 288.875 C 446.808594 288.875 446.835938 288.871094 446.863281 288.871094 C 447.386719 288.863281 447.914062 288.777344 448.433594 288.617188 C 448.484375 288.597656 448.539062 288.582031 448.589844 288.566406 C 448.8125 288.488281 449.03125 288.402344 449.246094 288.292969 C 449.261719 288.285156 449.277344 288.277344 449.292969 288.269531 C 449.335938 288.246094 449.375 288.222656 449.417969 288.199219 Z M 409.925781 236.71875 C 397.882812 251.402344 389.253906 234.671875 389.253906 234.671875 C 397.308594 239.484375 409.925781 236.71875 409.925781 236.71875 Z M 356.660156 311.609375 C 355.746094 308.875 352.484375 298.378906 351.125 284.105469 C 350.117188 273.554688 345.507812 257.65625 339.390625 247.421875 L 374.84375 256.078125 L 382.492188 290.367188 L 390.492188 326.25 Z M 356.660156 311.609375 " fill-opacity="1" fill-rule="nonzero"/></g></svg>